<svg xmlns="http://www.w3.org/2000/svg" width="169.111" height="131" viewBox="0 0 169.111 131">
  <g id="Group_172" data-name="Group 172" transform="translate(-140 -6953)">
    <path id="Path_128" data-name="Path 128" d="M36.954,78.462a2.357,2.357,0,0,1-1.977-1.067A66.962,66.962,0,0,1,37.1.96a2.361,2.361,0,0,1,3.8,2.8,62.24,62.24,0,0,0-1.976,71.045,2.361,2.361,0,0,1-1.973,3.654" transform="translate(133.913 6980.284)" fill="#2e3192"/>
    <path id="Path_129" data-name="Path 129" d="M182.695,78.462a2.361,2.361,0,0,1-1.9-3.762,62.243,62.243,0,0,0,1.976-71.046,2.361,2.361,0,0,1,3.95-2.587A66.962,66.962,0,0,1,184.6,77.5a2.358,2.358,0,0,1-1.9.959" transform="translate(94.318 6980.284)" fill="#2e3192"/>
    <path id="Path_130" data-name="Path 130" d="M52.111,120.705a1.371,1.371,0,0,1,.252-.841.792.792,0,0,1,.665-.338h5.953a.868.868,0,0,1,.665.349,1.242,1.242,0,0,1,.3.83,1.219,1.219,0,0,1-.287.83.873.873,0,0,1-.676.327H53.028a.807.807,0,0,1-.665-.317,1.31,1.31,0,0,1-.252-.841" transform="translate(126.799 6950.006)" fill="#2e3192"/>
    <path id="Path_136" data-name="Path 136" d="M164.818,120.705a1.371,1.371,0,0,1,.252-.841.792.792,0,0,1,.665-.338h5.953a.868.868,0,0,1,.665.349,1.242,1.242,0,0,1,.3.83,1.219,1.219,0,0,1-.287.83.873.873,0,0,1-.676.327h-5.953a.807.807,0,0,1-.665-.317,1.31,1.31,0,0,1-.252-.841" transform="translate(98.249 6950.006)" fill="#2e3192"/>
    <path id="Path_137" data-name="Path 137" d="M7.294,44.55,9.41,49.306l5.178.543-3.87,3.483L11.8,58.424l-4.508-2.6-4.508,2.6L3.87,53.332,0,49.849l5.178-.543Z" transform="translate(140 6968.999)" fill="#da2128"/>
    <path id="Path_138" data-name="Path 138" d="M11.915,22.916,13.4,26.245l3.624.38-2.709,2.438.759,3.565L11.915,30.8,8.76,32.628l.759-3.565L6.809,26.625l3.624-.38Z" transform="translate(138.275 6974.479)" fill="#da2128"/>
    <path id="Path_139" data-name="Path 139" d="M13.091,72.335l1.481,3.329,3.624.38-2.709,2.438.759,3.565-3.155-1.823L9.936,82.047l.759-3.565L7.986,76.045l3.624-.38Z" transform="translate(137.977 6961.96)" fill="#da2128"/>
    <path id="Path_140" data-name="Path 140" d="M214.24,44.55l2.116,4.756,5.178.543-3.869,3.483,1.083,5.092-4.508-2.6-4.508,2.6,1.083-5.092-3.87-3.483,5.178-.543Z" transform="translate(87.577 6968.999)" fill="#da2128"/>
    <path id="Path_141" data-name="Path 141" d="M209.811,22.916l1.481,3.329,3.624.38-2.709,2.438.759,3.565L209.811,30.8l-3.155,1.823.759-3.565-2.709-2.438,3.624-.38Z" transform="translate(88.145 6974.479)" fill="#da2128"/>
    <path id="Path_142" data-name="Path 142" d="M210.988,72.335l1.481,3.329,3.624.38-2.709,2.438.759,3.565-3.155-1.823-3.156,1.823.759-3.565-2.709-2.438,3.624-.38Z" transform="translate(87.847 6961.96)" fill="#da2128"/>
    <rect id="Rectangle_167" data-name="Rectangle 167" width="169.111" height="100.928" transform="translate(140 6980.284)" fill="none"/>
    <text id="_21" data-name="21" transform="translate(179 7049)" fill="#da2128" font-size="90" font-family="Manrope" font-weight="800"><tspan x="0" y="0">21</tspan></text>
    <text id="YEARS" transform="translate(192 7078)" fill="#da2128" font-size="20" font-family="Manrope" font-weight="800"><tspan x="0" y="0">YEARS</tspan></text>
  </g>
</svg>
