<svg xmlns="http://www.w3.org/2000/svg" xmlns:xlink="http://www.w3.org/1999/xlink" width="71.362" height="99.514" viewBox="0 0 71.362 99.514">
  <defs>
    <clipPath id="clip-path">
      <rect id="Rectangle_189" data-name="Rectangle 189" width="71.362" height="99.514" fill="none"/>
    </clipPath>
  </defs>
  <g id="Group_119" data-name="Group 119" transform="translate(0 0)">
    <g id="Group_119-2" data-name="Group 119" transform="translate(0 0)" clip-path="url(#clip-path)">
      <path id="Path_211" data-name="Path 211" d="M66.906,25.946a25.042,25.042,0,0,1,4.354-.023c.029.171.077.355.093.542s.006.392.006.587q0,31.179,0,62.355a10.81,10.81,0,0,1-.543,3.848,9.056,9.056,0,0,1-7.26,6.094,10.892,10.892,0,0,1-1.942.156q-26,.012-52,.008a9.344,9.344,0,0,1-6.239-2.139,8.965,8.965,0,0,1-3.333-6.6Q0,90.04,0,89.307,0,49.725,0,10.14A11.788,11.788,0,0,1,.465,6.38,9.279,9.279,0,0,1,8.789.017C9.113,0,9.441,0,9.766,0h30c.386,0,.77.012,1.136.019a16.744,16.744,0,0,1,.014,4.368c-.165.02-.352.056-.539.063-.293.011-.587,0-.88,0q-14.71,0-29.418,0c-.391,0-.783.011-1.172.031a4.784,4.784,0,0,0-4.407,4.24c-.046.485-.083.974-.083,1.46q-.007,39.535,0,79.069a13.135,13.135,0,0,0,.09,1.557,4.79,4.79,0,0,0,4.441,4.212c.324.023.651.022.977.022H61.437a6.317,6.317,0,0,0,1.84-.176,4.687,4.687,0,0,0,3.479-3.712A7.95,7.95,0,0,0,66.9,89.51c.012-3.291.006-6.58.006-9.871V25.946" transform="translate(0 0.001)" fill="#2e3192"/>
      <path id="Path_212" data-name="Path 212" d="M13.186,33.4a5.722,5.722,0,0,1,3.033.843,10.217,10.217,0,0,1,.881.614q4.267,3.262,8.533,6.531a10.1,10.1,0,0,0,.877.619,1.544,1.544,0,0,0,1.752-.019,10.8,10.8,0,0,0,1.152-.9q5.714-4.969,11.42-9.944,5.089-4.422,10.2-8.822a10.361,10.361,0,0,1,.92-.724,3.97,3.97,0,0,1,2.584-.721,3.646,3.646,0,0,1,.389.037,1.925,1.925,0,0,1,1.513,2.854,5.169,5.169,0,0,1-.753,1.133q-2.16,2.651-4.348,5.281-9.442,11.4-18.894,22.79a20.428,20.428,0,0,1-1.446,1.587,6.17,6.17,0,0,1-1.165.878,3.478,3.478,0,0,1-3.791-.065,8.44,8.44,0,0,1-2.124-2c-1.006-1.238-2-2.484-3-3.728q-3.952-4.909-7.9-9.822c-.548-.685-1.054-1.406-1.536-2.139a5.029,5.029,0,0,1-.685-1.712,2,2,0,0,1,1.781-2.519c.258-.039.519-.045.616-.052" transform="translate(5.832 11.343)" fill="#da2128"/>
      <path id="Path_213" data-name="Path 213" d="M55.291,23.875c-.457.02-.676.039-.894.039q-11.23,0-22.459,0a3.859,3.859,0,0,1-3.955-3.1,6.02,6.02,0,0,1-.088-1.261q-.007-7.812,0-15.624c0-.878,0-1.757,0-2.636,0-.222.022-.443.034-.679.344-.056.5.194.675.347q2.864,2.438,5.711,4.89Q44.395,14.487,54.474,23.13c.219.188.428.389.817.746" transform="translate(15.162 0.327)" fill="#2e3192"/>
    </g>
  </g>
</svg>
