<svg id="Group_80" data-name="Group 80" xmlns="http://www.w3.org/2000/svg" xmlns:xlink="http://www.w3.org/1999/xlink" width="129.167" height="106.699" viewBox="0 0 129.167 106.699">
  <defs>
    <clipPath id="clip-path">
      <rect id="Rectangle_168" data-name="Rectangle 168" width="129.167" height="106.699" fill="none"/>
    </clipPath>
  </defs>
  <g id="Group_79" data-name="Group 79" transform="translate(0 0)" clip-path="url(#clip-path)">
    <path id="Path_145" data-name="Path 145" d="M32.44,35.627a.685.685,0,0,0,.083.965,11.718,11.718,0,0,0,6.706,2.485,8.283,8.283,0,0,0,5.888-2.515.685.685,0,0,0-.951-.987c-4.926,4.745-10.515.174-10.76-.03a.685.685,0,0,0-.965.083" transform="translate(25.629 28.094)" fill="#2e3192"/>
    <path id="Path_146" data-name="Path 146" d="M26.572,42.4c.106,2.51.784,4.3,2.015,5.323a3.725,3.725,0,0,0,1.853.827c.5,5.287,3.091,7.35,4,7.922a.731.731,0,0,0,.2.26A15.388,15.388,0,0,0,43.826,60.1a13.482,13.482,0,0,0,8.724-3.371.747.747,0,0,0,.2-.26c.911-.57,3.5-2.635,4-7.922a3.725,3.725,0,0,0,1.853-.827c1.231-1.023,1.909-2.813,2.015-5.323.124-2.919-.257-4.4-1.238-4.794a1.446,1.446,0,0,0-.163-.054c.762-2.84,1.975-9.444-1.441-14.395-2.582-3.742-7.232-5.7-13.823-5.809a1.47,1.47,0,0,0-.267-.007l-.088,0-.1,0a1.455,1.455,0,0,0-.266.007c-6.593.113-11.243,2.067-13.824,5.809C26,28.1,27.211,34.708,27.973,37.548a1.575,1.575,0,0,0-.163.054c-.98.4-1.362,1.875-1.238,4.794m32.272-3.38c.12.2.405.936.3,3.317-.086,2.025-.59,3.488-1.459,4.228a2.271,2.271,0,0,1-.671.4l1.755-7.894a.744.744,0,0,1,.07-.05M31.746,29l0,0,.009-.005a3.864,3.864,0,0,1,1.539-.813c.068-.016.133-.029.2-.043l.013-.005a2.925,2.925,0,0,1,2.817.294,21.167,21.167,0,0,0,8.683,3.319,7.608,7.608,0,0,1-3.111-4.456,13.581,13.581,0,0,0,11.435,4.594,36.345,36.345,0,0,1-4.749-5.425,23.866,23.866,0,0,1,5.186,1.694c.045.011.09.018.135.029a3.84,3.84,0,0,1,1.541.814l.007,0,0,0c1.572,1.328,2.436,3.81,2.876,5.556a22.657,22.657,0,0,1-.913,3.868l-.014.056-.013.038-2.034,9.156c0,.022,0,.041-.007.063s-.007.036-.009.054c-.348,5.908-3.392,7.454-3.516,7.515a.733.733,0,0,0-.389.434c-7.325,5.868-14.26,1.091-15.661,0a.765.765,0,0,0-.382-.431c-.129-.063-3.175-1.609-3.523-7.517l-.009-.05a.44.44,0,0,0-.007-.066L29.81,38.517l-.013-.036-.014-.057a22.406,22.406,0,0,1-.915-3.859c.438-1.747,1.3-4.236,2.878-5.565m-3.4,10.016a.743.743,0,0,1,.07.05l1.755,7.894a2.271,2.271,0,0,1-.671-.4c-.866-.741-1.371-2.2-1.457-4.228-.1-2.382.183-3.118.3-3.317" transform="translate(21.08 13.763)" fill="#2e3192"/>
    <path id="Path_147" data-name="Path 147" d="M33.09,31.925a2.134,2.134,0,1,0-2.133-2.133,2.132,2.132,0,0,0,2.133,2.133" transform="translate(24.579 21.959)" fill="#2e3192"/>
    <path id="Path_148" data-name="Path 148" d="M40.629,31.925A2.134,2.134,0,1,0,38.5,29.792a2.132,2.132,0,0,0,2.133,2.133" transform="translate(30.565 21.959)" fill="#2e3192"/>
    <path id="Path_149" data-name="Path 149" d="M37.237,48.04a.426.426,0,0,0,.472,0l2.782-1.833a.429.429,0,0,0,.167-.5l-1.044-2.917a.428.428,0,0,0-.4-.283H35.738a.43.43,0,0,0-.405.283L34.288,45.7a.432.432,0,0,0,.169.5Z" transform="translate(27.204 33.746)" fill="#2e3192"/>
    <path id="Path_150" data-name="Path 150" d="M33.981,53.972l3.514,3.26a.475.475,0,0,0,.642,0l3.514-3.26a.474.474,0,0,0,.142-.445l-1.719-8.051-1.5.99a1.366,1.366,0,0,1-1.511,0l-1.5-.99-1.717,8.051a.469.469,0,0,0,.14.445" transform="translate(26.86 36.107)" fill="#2e3192"/>
    <path id="Path_151" data-name="Path 151" d="M75.892,45.587c-4.345-2.113-6.849-3.613-12.52-4.4,0,0-2.822,17.671-12.228,22.906h-.492c-9.4-5.235-12.226-22.906-12.226-22.906-5.671.786-8.175,2.286-12.52,4.4-6.652,3.236-7.013,7.373-7.551,10.61-.337,2.015-.743,10.7-1,15.522a.918.918,0,0,0,.82.962C21.143,73,31.805,74,50.9,74S80.653,73,83.624,72.68a.918.918,0,0,0,.82-.962c-.258-4.819-.666-13.507-1-15.522-.538-3.236-.9-7.373-7.551-10.61M70.155,66.541l-10.441.307h-.023a.767.767,0,0,1-.022-1.534l10.441-.307a.767.767,0,1,1,.045,1.534" transform="translate(13.778 32.702)" fill="#2e3192"/>
    <path id="Path_152" data-name="Path 152" d="M36.128,11.257a.268.268,0,0,1,.1.3l-2.088,6.428a.269.269,0,0,0,.413.3l5.468-3.974a.269.269,0,0,1,.316,0L45.8,18.286a.269.269,0,0,0,.413-.3l-2.088-6.428a.268.268,0,0,1,.1-.3l5.468-3.974a.268.268,0,0,0-.158-.484h-6.76a.27.27,0,0,1-.255-.185L40.43.185a.268.268,0,0,0-.509,0l-2.088,6.43a.272.272,0,0,1-.257.185H30.818a.268.268,0,0,0-.158.484Z" transform="translate(24.255 0)" fill="#da2128"/>
    <path id="Path_153" data-name="Path 153" d="M23,20l6.744-.472a.268.268,0,0,0,.122-.5l-5.732-3.581a.271.271,0,0,1-.118-.292L25.647,8.6a.268.268,0,0,0-.432-.271l-5.179,4.345a.267.267,0,0,1-.314.023L13.989,9.118a.268.268,0,0,0-.391.328l2.533,6.266a.266.266,0,0,1-.077.3l-5.177,4.345a.268.268,0,0,0,.19.474l6.744-.472a.268.268,0,0,1,.267.167L20.609,26.8a.269.269,0,0,0,.509-.036L22.753,20.2A.27.27,0,0,1,23,20" transform="translate(8.559 6.565)" fill="#da2128"/>
    <path id="Path_154" data-name="Path 154" d="M18.765,31.41l-6.693.94a.267.267,0,0,1-.278-.147L8.83,26.127a.267.267,0,0,0-.5.072L7.151,32.856a.269.269,0,0,1-.226.219l-6.693.94a.268.268,0,0,0-.09.5L6.11,37.691a.269.269,0,0,1,.138.283L5.075,44.63a.269.269,0,0,0,.45.24l4.862-4.7a.266.266,0,0,1,.312-.043L16.668,43.3a.268.268,0,0,0,.366-.355l-2.962-6.074a.268.268,0,0,1,.054-.31l4.863-4.7a.268.268,0,0,0-.224-.457" transform="translate(0 20.625)" fill="#da2128"/>
    <path id="Path_155" data-name="Path 155" d="M64.447,16.018a.264.264,0,0,1-.075-.3L66.9,9.445a.269.269,0,0,0-.391-.328L60.78,12.7a.27.27,0,0,1-.314-.022L55.286,8.332a.268.268,0,0,0-.432.271L56.49,15.16a.267.267,0,0,1-.118.292L50.64,19.035a.268.268,0,0,0,.124.5L57.506,20a.268.268,0,0,1,.242.2l1.634,6.559a.269.269,0,0,0,.509.036l2.531-6.266a.267.267,0,0,1,.267-.167l6.744.47a.267.267,0,0,0,.19-.472Z" transform="translate(40.107 6.565)" fill="#da2128"/>
    <path id="Path_156" data-name="Path 156" d="M80.209,34.015l-6.693-.94a.269.269,0,0,1-.226-.219L72.115,26.2a.268.268,0,0,0-.5-.072L68.647,32.2a.267.267,0,0,1-.278.147l-6.693-.94a.268.268,0,0,0-.224.457l4.863,4.7a.271.271,0,0,1,.054.31l-2.964,6.074a.269.269,0,0,0,.368.355l5.969-3.174a.266.266,0,0,1,.312.043l4.862,4.7a.269.269,0,0,0,.45-.24l-1.173-6.656a.264.264,0,0,1,.138-.283L80.3,34.517a.268.268,0,0,0-.088-.5" transform="translate(48.726 20.625)" fill="#da2128"/>
  </g>
</svg>
