<svg id="Group_100" data-name="Group 100" xmlns="http://www.w3.org/2000/svg" xmlns:xlink="http://www.w3.org/1999/xlink" width="86.002" height="100.927" viewBox="0 0 86.002 100.927">
  <defs>
    <clipPath id="clip-path">
      <rect id="Rectangle_178" data-name="Rectangle 178" width="86.002" height="100.927" fill="none"/>
    </clipPath>
  </defs>
  <g id="Group_99" data-name="Group 99" transform="translate(0 0)" clip-path="url(#clip-path)">
    <path id="Path_159" data-name="Path 159" d="M28.968,44.561H17.477V33.069H28.968Zm-13.7,2.208H31.178V30.857H15.267Zm13.7,18.171H17.477V53.448H28.968Zm-13.7,2.21H31.178V51.238H15.267Zm13.7,18.169H17.477V73.827H28.968Zm-13.7,2.21H31.178V71.617H15.267ZM62.761,14.571H48.094V9.2H62.761A11.692,11.692,0,0,1,70.9,12.463a11.082,11.082,0,0,1,3.419,7.991v.319l-5.37,6.559V20.454a5.7,5.7,0,0,0-1.78-4.128,6.312,6.312,0,0,0-4.407-1.755m-16.02.136H27.58A20.68,20.68,0,0,1,30.263,4.639C32.075,1.647,34.524,0,37.16,0s5.085,1.647,6.9,4.639a20.681,20.681,0,0,1,2.685,10.068M39.461,7.1a2.3,2.3,0,1,0-2.3,2.3,2.3,2.3,0,0,0,2.3-2.3M68.949,62.615V89.674a5.7,5.7,0,0,1-1.78,4.126,6.313,6.313,0,0,1-4.407,1.757H11.56A6.315,6.315,0,0,1,7.151,93.8a5.706,5.706,0,0,1-1.778-4.126V20.454a5.711,5.711,0,0,1,1.778-4.128,6.317,6.317,0,0,1,4.409-1.755H26.225V9.2H11.56a11.7,11.7,0,0,0-8.141,3.265A11.091,11.091,0,0,0,0,20.454v69.22a11.091,11.091,0,0,0,3.419,7.991,11.7,11.7,0,0,0,8.141,3.263h51.2A11.693,11.693,0,0,0,70.9,97.665a11.082,11.082,0,0,0,3.419-7.991V56.054ZM20.293,23.139H54.028a17.17,17.17,0,0,0-6.4-6.507H26.7a17.17,17.17,0,0,0-6.4,6.507" transform="translate(0 0)" fill="#2e3192"/>
    <path id="Path_160" data-name="Path 160" d="M17.451,35.2h0l7.605-8.247L37.113,38.081,58.391,12.1l8.681,7.109L38.256,54.4Z" transform="translate(18.931 13.124)" fill="#da2128"/>
  </g>
</svg>
