<svg id="Group_102" data-name="Group 102" xmlns="http://www.w3.org/2000/svg" xmlns:xlink="http://www.w3.org/1999/xlink" width="100.944" height="100.927" viewBox="0 0 100.944 100.927">
  <defs>
    <clipPath id="clip-path">
      <rect id="Rectangle_179" data-name="Rectangle 179" width="100.944" height="100.927" fill="none"/>
    </clipPath>
  </defs>
  <g id="Group_101" data-name="Group 101" transform="translate(0 0)" clip-path="url(#clip-path)">
    <path id="Path_161" data-name="Path 161" d="M97.63,67.183,82.5,52.432V1.553A1.551,1.551,0,0,0,80.945,0H21.2A1.552,1.552,0,0,0,19.65,1.553V18.581H11.379a1.553,1.553,0,0,0-1.552,1.553V32.187H1.553A1.552,1.552,0,0,0,0,33.741V82.1a6.473,6.473,0,0,0,6.466,6.466h9.825c.021,0,.041-.006.06-.006H74.645v.564c0,3.652,1.266,4.786,4.105,10.9a1.554,1.554,0,0,0,1.409.9,1.525,1.525,0,0,0,.653-.144,1.553,1.553,0,0,0,.756-2.062c-2.953-6.357-3.818-6.811-3.818-9.594l.01-25.086c-.143-1.737.721-2.423,2.165-2.182.446.374,2.707,3,3.734,18.016a1.574,1.574,0,0,0,1.654,1.443,1.555,1.555,0,0,0,1.444-1.656C86.048,69.281,84.615,62.723,82.5,60.1V56.768L95.448,69.392c2.867,2.868,2.507,11.911,2.146,15.021A37.347,37.347,0,0,0,97.853,99.7a1.554,1.554,0,0,0,1.518,1.231,1.584,1.584,0,0,0,.322-.034,1.554,1.554,0,0,0,1.2-1.841,34.433,34.433,0,0,1-.234-14.143c.158-1.346,1.426-13.271-3.028-17.727m-84.7-45.5h6.721V82.1a3.362,3.362,0,0,1-3.3,3.355h-.119a3.36,3.36,0,0,1-3.3-3.355V21.686ZM3.105,82.1V35.293H9.827V82.1a6.4,6.4,0,0,0,.969,3.361H6.466A3.364,3.364,0,0,1,3.105,82.1M74.661,64.167l-.013,21.289H21.793a6.408,6.408,0,0,0,.966-3.355V20.134l0-.011V3.105H79.391V58.741a4.664,4.664,0,0,0-4.73,5.426" transform="translate(0 0)" fill="#2e3192"/>
    <path id="Path_162" data-name="Path 162" d="M24.079,10.269l5.1,6.563h1.646v-9H29.3v6.717L24.079,7.837H22.561v9h1.518Z" transform="translate(9.07 3.151)" fill="#da2128"/>
    <path id="Path_163" data-name="Path 163" d="M36.707,15.4H31.752V13h4.311V11.646H31.752V9.265h4.8V7.837H30.234v9h6.473Z" transform="translate(12.154 3.151)" fill="#da2128"/>
    <path id="Path_164" data-name="Path 164" d="M40.1,16.832l1.893-6.163h.1l1.891,6.163h1.506l3.139-9H47L44.733,14.31,42.727,7.837H41.363L39.355,14.31,37.091,7.837H35.456l3.14,9Z" transform="translate(14.253 3.151)" fill="#da2128"/>
    <path id="Path_165" data-name="Path 165" d="M49.115,15.581A4.282,4.282,0,0,1,46.284,14.4l-.952,1.145A5.472,5.472,0,0,0,49.075,17a3.531,3.531,0,0,0,2.329-.733,2.361,2.361,0,0,0,.889-1.911,2.23,2.23,0,0,0-.7-1.783,5.008,5.008,0,0,0-2.085-.939,6.386,6.386,0,0,1-1.807-.624.945.945,0,0,1-.425-.836.9.9,0,0,1,.425-.817,1.985,1.985,0,0,1,1.087-.271,4.167,4.167,0,0,1,1.345.231,3.1,3.1,0,0,1,1.081.592l.81-1.144a4.466,4.466,0,0,0-1.466-.8,5.407,5.407,0,0,0-1.712-.282,3.645,3.645,0,0,0-2.245.676,2.252,2.252,0,0,0-.907,1.924,2.175,2.175,0,0,0,.8,1.852,3.382,3.382,0,0,0,.916.522,12.348,12.348,0,0,0,1.506.437,4.276,4.276,0,0,1,1.395.527.94.94,0,0,1,.405.812.986.986,0,0,1-.43.836,1.933,1.933,0,0,1-1.165.315" transform="translate(18.224 3.088)" fill="#da2128"/>
    <path id="Path_166" data-name="Path 166" d="M62.848,20.346H22.477a1.553,1.553,0,1,0,0,3.105H62.848a1.553,1.553,0,0,0,0-3.105" transform="translate(8.411 8.179)" fill="#2e3192"/>
    <path id="Path_167" data-name="Path 167" d="M62.848,26.991H22.477a1.553,1.553,0,1,0,0,3.105H62.848a1.553,1.553,0,0,0,0-3.105" transform="translate(8.411 10.851)" fill="#2e3192"/>
    <path id="Path_168" data-name="Path 168" d="M62.848,33.636H22.477a1.553,1.553,0,1,0,0,3.105H62.848a1.553,1.553,0,0,0,0-3.105" transform="translate(8.411 13.522)" fill="#2e3192"/>
    <path id="Path_169" data-name="Path 169" d="M39.015,40.281H22.477a1.553,1.553,0,0,0,0,3.105H39.015a1.553,1.553,0,1,0,0-3.105" transform="translate(8.412 16.193)" fill="#2e3192"/>
    <path id="Path_170" data-name="Path 170" d="M56.014,40.281H39.476a1.553,1.553,0,0,0,0,3.105H56.014a1.553,1.553,0,0,0,0-3.105" transform="translate(15.246 16.193)" fill="#2e3192"/>
    <path id="Path_171" data-name="Path 171" d="M39.015,46.926H22.477a1.553,1.553,0,0,0,0,3.105H39.015a1.553,1.553,0,1,0,0-3.105" transform="translate(8.412 18.865)" fill="#2e3192"/>
    <path id="Path_172" data-name="Path 172" d="M39.015,53.571H22.477a1.553,1.553,0,0,0,0,3.105H39.015a1.553,1.553,0,1,0,0-3.105" transform="translate(8.412 21.536)" fill="#2e3192"/>
    <path id="Path_173" data-name="Path 173" d="M56.014,46.926H39.476a1.553,1.553,0,0,0,0,3.105H56.014a1.553,1.553,0,0,0,0-3.105" transform="translate(15.246 18.865)" fill="#2e3192"/>
  </g>
</svg>
