<svg id="Group_104" data-name="Group 104" xmlns="http://www.w3.org/2000/svg" xmlns:xlink="http://www.w3.org/1999/xlink" width="71.362" height="112.063" viewBox="0 0 71.362 112.063">
  <defs>
    <clipPath id="clip-path">
      <rect id="Rectangle_180" data-name="Rectangle 180" width="71.362" height="112.063" fill="none"/>
    </clipPath>
  </defs>
  <g id="Group_103" data-name="Group 103" transform="translate(0 0)" clip-path="url(#clip-path)">
    <path id="Path_174" data-name="Path 174" d="M5.092,72.037l56.15-.1a5.76,5.76,0,0,0,5.469-6.018L66.6,22.595" transform="translate(2.731 12.118)" fill="none" stroke="#2e3192" stroke-linecap="round" stroke-linejoin="round" stroke-width="2.5"/>
    <path id="Path_175" data-name="Path 175" d="M68.575,25.946V7.251a5.758,5.758,0,0,0-5.48-6H7.265C3.9,1.25,1.41,4.565,1.41,8.486V88.264" transform="translate(0.756 0.67)" fill="none" stroke="#2e3192" stroke-linecap="round" stroke-linejoin="round" stroke-width="2.5"/>
    <line id="Line_8" data-name="Line 8" x2="22.407" transform="translate(27.661 64.659)" fill="none" stroke="#2e3192" stroke-linecap="round" stroke-linejoin="round" stroke-width="2.5" stroke-dasharray="4.145 2.764 0 2.764"/>
    <line id="Line_9" data-name="Line 9" x2="35.145" transform="translate(20.444 69.754)" fill="none" stroke="#2e3192" stroke-linecap="round" stroke-linejoin="round" stroke-width="2.5"/>
    <path id="Path_176" data-name="Path 176" d="M1.28,89.578V8.486c0-3.919,2.486-7.236,5.855-7.236" transform="translate(0.686 0.67)" fill="none" stroke="#2e3192" stroke-linecap="round" stroke-linejoin="round" stroke-width="2.5"/>
    <path id="Path_177" data-name="Path 177" d="M14.213,68.752H7.179c-3.275,0-5.929-3.106-5.929-6.937v-.141c0-3.83,2.653-6.936,5.929-6.936H64.527V65.067a3.537,3.537,0,0,1-3.365,3.686H35.442" transform="translate(0.67 29.357)" fill="none" stroke="#2e3192" stroke-linecap="round" stroke-linejoin="round" stroke-width="2.5"/>
    <line id="Line_10" data-name="Line 10" x2="51.683" transform="translate(13.152 91.049)" fill="none" stroke="#2e3192" stroke-linecap="round" stroke-linejoin="round" stroke-width="2.5"/>
    <path id="Path_178" data-name="Path 178" d="M28.838,80.278l-9.187-8.187-9.187,8.187V59.264H28.838Z" transform="translate(5.612 31.785)" fill="#da2128"/>
    <path id="Path_179" data-name="Path 179" d="M12.314,30.177A19.436,19.436,0,0,1,31.526,10.526,19.435,19.435,0,0,1,50.737,30.177,19.435,19.435,0,0,1,31.526,49.828,19.436,19.436,0,0,1,12.314,30.177" transform="translate(6.604 5.645)" fill="#da2128"/>
  </g>
</svg>
