<svg xmlns="http://www.w3.org/2000/svg" xmlns:xlink="http://www.w3.org/1999/xlink" width="94" height="94" viewBox="0 0 94 94">
  <defs>
    <clipPath id="clip-path">
      <rect id="Rectangle_181" data-name="Rectangle 181" width="94" height="94" transform="translate(0 -0.275)" fill="none"/>
    </clipPath>
  </defs>
  <g id="Group_111" data-name="Group 111" transform="translate(0 0.275)">
    <g id="Group_110" data-name="Group 110" transform="translate(0 0)" clip-path="url(#clip-path)">
      <path id="Path_180" data-name="Path 180" d="M33.925,60.985,30.3,76.583,45.9,72.96,75.924,42.937,63.949,30.962Zm.922,11.054,2.169-9.34,7.17,7.17Zm28.8-34.053L42.577,59.057a.849.849,0,1,1-1.2-1.2l21.07-21.071a.85.85,0,0,1,1.2,1.2" transform="translate(9.144 9.342)" fill="#da2128"/>
      <path id="Path_181" data-name="Path 181" d="M74.951,32.477l-7.17-7.17a3.4,3.4,0,0,0-4.8,0l-4.059,4.057L70.894,41.34l4.057-4.059a3.4,3.4,0,0,0,0-4.8" transform="translate(17.777 7.336)" fill="#da2128"/>
      <path id="Path_182" data-name="Path 182" d="M63.676,87.868a1.946,1.946,0,0,1-1.953,1.953H5.858a1.946,1.946,0,0,1-1.953-1.953V5.858A1.958,1.958,0,0,1,5.858,3.905H41.045V16.773a9.767,9.767,0,0,0,9.763,9.763H63.676V44.189l3.905-3.905V22.631H50.808a5.85,5.85,0,0,1-5.858-5.858V0H5.858A5.863,5.863,0,0,0,0,5.858v82.01a5.851,5.851,0,0,0,5.858,5.858H61.723a5.862,5.862,0,0,0,5.858-5.858V75.293L63.676,79.2Z" transform="translate(0 0)" fill="#2e3192"/>
      <path id="Path_183" data-name="Path 183" d="M39.482,18.276H54.3L37.529,1.507V16.323a1.954,1.954,0,0,0,1.953,1.953" transform="translate(11.324 0.455)" fill="#2e3192"/>
      <path id="Path_184" data-name="Path 184" d="M8.881,29.865H41.234a1.953,1.953,0,1,0,0-3.905H8.881a1.953,1.953,0,1,0,0,3.905" transform="translate(2.09 7.833)" fill="#2e3192"/>
      <path id="Path_185" data-name="Path 185" d="M56.464,37.208a1.952,1.952,0,0,0-1.953-1.953H8.881a1.953,1.953,0,1,0,0,3.905H54.512a1.952,1.952,0,0,0,1.953-1.953" transform="translate(2.09 10.638)" fill="#2e3192"/>
      <path id="Path_186" data-name="Path 186" d="M48.365,44.116H8.883a1.953,1.953,0,1,0,0,3.905H44.46Z" transform="translate(2.091 13.311)" fill="#2e3192"/>
      <path id="Path_187" data-name="Path 187" d="M6.93,54.934a1.946,1.946,0,0,0,1.953,1.953H36.375l.918-3.905H8.883A1.958,1.958,0,0,0,6.93,54.934" transform="translate(2.091 15.986)" fill="#2e3192"/>
    </g>
  </g>
</svg>
