<svg id="Group_113" data-name="Group 113" xmlns="http://www.w3.org/2000/svg" xmlns:xlink="http://www.w3.org/1999/xlink" width="115.526" height="100.928" viewBox="0 0 115.526 100.928">
  <defs>
    <clipPath id="clip-path">
      <rect id="Rectangle_182" data-name="Rectangle 182" width="115.526" height="100.928" fill="none"/>
    </clipPath>
  </defs>
  <g id="Group_112" data-name="Group 112" transform="translate(0 0)" clip-path="url(#clip-path)">
    <path id="Path_188" data-name="Path 188" d="M52.055,48.017A19.036,19.036,0,1,1,71.092,28.979,19.059,19.059,0,0,1,52.055,48.017m0-33.435a14.4,14.4,0,1,0,14.4,14.4,14.415,14.415,0,0,0-14.4-14.4" transform="translate(19.96 6.012)" fill="#2e3192"/>
    <path id="Path_189" data-name="Path 189" d="M79.121,42.075A22.7,22.7,0,0,0,66.476,33.1a2.325,2.325,0,0,0-1.9.3,20.534,20.534,0,0,1-22.629,0,2.316,2.316,0,0,0-1.9-.3,22.681,22.681,0,0,0-9.019,4.905,27.693,27.693,0,0,1,4.247,2.514c12.072,6.948,12.265,27.449,12.265,27.449v4.639H81.388a2.32,2.32,0,0,0,2.319-2.32V57.275a26.371,26.371,0,0,0-4.586-15.2" transform="translate(18.755 19.959)" fill="#2e3192"/>
    <path id="Path_190" data-name="Path 190" d="M58.575,77.819H2.319A2.319,2.319,0,0,1,0,75.5V62.485a26.374,26.374,0,0,1,4.586-15.2,22.68,22.68,0,0,1,12.644-8.973,2.316,2.316,0,0,1,1.9.3,20.536,20.536,0,0,0,22.63,0,2.319,2.319,0,0,1,1.9-.3,22.686,22.686,0,0,1,12.645,8.974,26.374,26.374,0,0,1,4.586,15.2V75.5a2.319,2.319,0,0,1-2.319,2.319" transform="translate(0 23.109)" fill="#2e3192"/>
    <path id="Path_191" data-name="Path 191" d="M26.148,53.227A19.036,19.036,0,1,1,45.185,34.191,19.059,19.059,0,0,1,26.148,53.227m0-33.435a14.4,14.4,0,1,0,14.4,14.4,14.415,14.415,0,0,0-14.4-14.4" transform="translate(4.298 9.162)" fill="#2e3192"/>
    <path id="Path_192" data-name="Path 192" d="M78.605,9.825H72.019V3.238a3.239,3.239,0,0,0-6.477,0V9.825H58.955a3.24,3.24,0,1,0,0,6.479h6.587v6.585a3.239,3.239,0,1,0,6.477,0V16.3h6.587a3.24,3.24,0,0,0,0-6.479" transform="translate(33.681 0)" fill="#da2128"/>
  </g>
</svg>
