<svg id="Group_116" data-name="Group 116" xmlns="http://www.w3.org/2000/svg" xmlns:xlink="http://www.w3.org/1999/xlink" width="87.612" height="69.849" viewBox="0 0 87.612 69.849">
  <defs>
    <clipPath id="clip-path">
      <rect id="Rectangle_187" data-name="Rectangle 187" width="87.612" height="69.848" fill="none"/>
    </clipPath>
  </defs>
  <rect id="Rectangle_183" data-name="Rectangle 183" width="28.522" height="25.036" transform="translate(11.399 32.949)" fill="#2e3192"/>
  <rect id="Rectangle_184" data-name="Rectangle 184" width="30.107" height="5.071" transform="translate(45.944 32.949)" fill="#2e3192"/>
  <rect id="Rectangle_185" data-name="Rectangle 185" width="30.107" height="5.071" transform="translate(45.944 42.932)" fill="#2e3192"/>
  <rect id="Rectangle_186" data-name="Rectangle 186" width="30.107" height="5.071" transform="translate(45.944 52.915)" fill="#2e3192"/>
  <g id="Group_115" data-name="Group 115" transform="translate(0 0)">
    <g id="Group_114" data-name="Group 114" clip-path="url(#clip-path)">
      <path id="Path_193" data-name="Path 193" d="M81.03,69.848H6.583A6.591,6.591,0,0,1,0,63.265V6.582A6.59,6.59,0,0,1,6.583,0H81.03a6.59,6.59,0,0,1,6.582,6.582V63.265a6.59,6.59,0,0,1-6.582,6.583M6.583,5.063A1.538,1.538,0,0,0,5.064,6.582V63.265a1.538,1.538,0,0,0,1.519,1.519H81.03a1.539,1.539,0,0,0,1.519-1.519V6.582A1.539,1.539,0,0,0,81.03,5.063Z" transform="translate(0 0)" fill="#2e3192"/>
      <path id="Path_194" data-name="Path 194" d="M10.127,24.22V8.611h3.066l6.388,10.423V8.611h2.929V24.22H19.349L13.055,14.04V24.22Z" transform="translate(2.196 1.867)" fill="#da2128"/>
      <path id="Path_195" data-name="Path 195" d="M23.043,24.22V8.611H34.618v2.641H26.195v3.461h7.838v2.63H26.195v4.249h8.721v2.63Z" transform="translate(4.996 1.867)" fill="#da2128"/>
      <path id="Path_196" data-name="Path 196" d="M37.481,24.22,33.753,8.611h3.227l2.353,10.723L42.187,8.611h3.748l2.737,10.9,2.4-10.9H54.24L50.45,24.22H47.106L44,12.55,40.9,24.22Z" transform="translate(7.319 1.867)" fill="#da2128"/>
      <path id="Path_197" data-name="Path 197" d="M51.255,19.189l3.066-.3a3.749,3.749,0,0,0,1.123,2.268,3.4,3.4,0,0,0,2.284.724,3.509,3.509,0,0,0,2.295-.645,1.913,1.913,0,0,0,.771-1.506,1.419,1.419,0,0,0-.324-.942,2.6,2.6,0,0,0-1.134-.677q-.555-.192-2.524-.681a8.55,8.55,0,0,1-3.557-1.544,4.063,4.063,0,0,1-1.437-3.141,4.014,4.014,0,0,1,.675-2.23,4.243,4.243,0,0,1,1.949-1.582,7.817,7.817,0,0,1,3.071-.543A6.59,6.59,0,0,1,61.94,9.681a4.547,4.547,0,0,1,1.56,3.439l-3.152.139a2.682,2.682,0,0,0-.868-1.73,3.178,3.178,0,0,0-2-.527,3.6,3.6,0,0,0-2.151.565,1.136,1.136,0,0,0-.5.969,1.2,1.2,0,0,0,.468.948,8.284,8.284,0,0,0,2.9,1.043,15.386,15.386,0,0,1,3.4,1.123,4.394,4.394,0,0,1,1.725,1.587,4.648,4.648,0,0,1,.623,2.487,4.6,4.6,0,0,1-.746,2.513,4.467,4.467,0,0,1-2.109,1.74,8.837,8.837,0,0,1-3.4.571,6.757,6.757,0,0,1-4.546-1.369,5.948,5.948,0,0,1-1.9-3.988" transform="translate(11.114 1.82)" fill="#da2128"/>
    </g>
  </g>
</svg>
