<svg xmlns="http://www.w3.org/2000/svg" xmlns:xlink="http://www.w3.org/1999/xlink" width="100.944" height="95.152" viewBox="0 0 100.944 95.152">
  <defs>
    <clipPath id="clip-path">
      <rect id="Rectangle_188" data-name="Rectangle 188" width="100.944" height="95.153" fill="none"/>
    </clipPath>
  </defs>
  <g id="Group_118" data-name="Group 118" transform="translate(0 0)">
    <g id="Group_117" data-name="Group 117" transform="translate(0 0)" clip-path="url(#clip-path)">
      <path id="Path_198" data-name="Path 198" d="M33.521,84.106l-1.382.334A4.424,4.424,0,0,1,26.8,81.176l-3.93-16.283a1.1,1.1,0,0,0-1.073-.845H5.751a3.775,3.775,0,0,1-3.776-3.774V30.766A4.425,4.425,0,0,1,6.4,26.341H7.786a4.425,4.425,0,0,1,4.425,4.425v22.11a.937.937,0,0,0,.937.938H28.415a2.974,2.974,0,0,1,2.891,2.275l5.479,22.677a4.425,4.425,0,0,1-3.264,5.34" transform="translate(0.794 10.589)" fill="#2e3192"/>
      <path id="Path_199" data-name="Path 199" d="M16.471,21.061a8.235,8.235,0,1,1-8.235-8.235,8.236,8.236,0,0,1,8.235,8.235" transform="translate(0 5.156)" fill="#2e3192"/>
      <path id="Path_200" data-name="Path 200" d="M9.012,73.476h-2.3a4.891,4.891,0,0,1-4.89-4.89V58.812a4.891,4.891,0,0,1,4.89-4.89h2.3a4.891,4.891,0,0,1,4.89,4.89v9.773a4.891,4.891,0,0,1-4.89,4.89" transform="translate(0.733 21.676)" fill="#2e3192"/>
      <path id="Path_201" data-name="Path 201" d="M48.5,84.106l1.382.334a4.424,4.424,0,0,0,5.337-3.264l3.93-16.283a1.1,1.1,0,0,1,1.073-.845H76.266a3.775,3.775,0,0,0,3.776-3.774V30.766a4.425,4.425,0,0,0-4.425-4.425H74.231a4.425,4.425,0,0,0-4.425,4.425v22.11a.937.937,0,0,1-.937.938H53.6a2.974,2.974,0,0,0-2.891,2.275L45.232,78.766a4.425,4.425,0,0,0,3.264,5.34" transform="translate(18.133 10.589)" fill="#2e3192"/>
      <path id="Path_202" data-name="Path 202" d="M60.252,21.061a8.235,8.235,0,1,0,8.235-8.235,8.236,8.236,0,0,0-8.235,8.235" transform="translate(24.221 5.156)" fill="#2e3192"/>
      <path id="Path_203" data-name="Path 203" d="M66.451,73.476h2.3a4.891,4.891,0,0,0,4.89-4.89V58.812a4.891,4.891,0,0,0-4.89-4.89h-2.3a4.891,4.891,0,0,0-4.89,4.89v9.773a4.891,4.891,0,0,0,4.89,4.89" transform="translate(24.748 21.676)" fill="#2e3192"/>
      <path id="Path_204" data-name="Path 204" d="M68.042,46.468h-48.1a3.823,3.823,0,1,1,0-7.645h48.1a3.823,3.823,0,0,1,0,7.645" transform="translate(6.48 15.607)" fill="#2e3192"/>
      <path id="Path_205" data-name="Path 205" d="M39.852,78.518H34.659L32.877,41.38h8.757Z" transform="translate(13.217 16.635)" fill="#2e3192"/>
      <path id="Path_206" data-name="Path 206" d="M56.2,23a30.543,30.543,0,0,0,4.694,4.249c-4.313.086-6.738-1.28-8.056-2.554a21.026,21.026,0,0,1-7.306,1.267c-8.484,0-15.36-4.729-15.36-10.563S37.045,4.838,45.528,4.838,60.89,9.567,60.89,15.4c0,2.985-1.8,5.68-4.694,7.6" transform="translate(12.128 1.944)" fill="#da2128"/>
      <path id="Path_207" data-name="Path 207" d="M32.684,16.544c0-5.832,6.878-10.563,15.362-10.563.37,0,.736.013,1.1.031C46.672,2.456,41.394,0,35.28,0,26.8,0,19.92,4.73,19.92,10.563c0,2.985,1.8,5.678,4.694,7.6a30.618,30.618,0,0,1-4.694,4.249c4.311.084,6.737-1.281,8.056-2.556A20.667,20.667,0,0,0,34.181,21.1a7.919,7.919,0,0,1-1.5-4.552" transform="translate(8.008 0)" fill="#da2128"/>
      <path id="Path_208" data-name="Path 208" d="M46.136,31.663h0a4.1,4.1,0,0,1,4.987-2.594l12.755,4.394a3.611,3.611,0,0,0,3.063-.363l2.826-1.7a9.92,9.92,0,0,0,3.192,1.166,10.22,10.22,0,0,0,6.62-1.077l-.191.972a9.49,9.49,0,0,1-4.254,6.327l-8.269,4.986a3.592,3.592,0,0,1-3.22.306L48.265,37.934c-2.21-.882-3.192-3.777-2.128-6.271" transform="translate(18.374 11.608)" fill="#2e3192"/>
      <path id="Path_209" data-name="Path 209" d="M35.695,31.663h0a4.1,4.1,0,0,0-4.987-2.594L17.952,33.463a3.611,3.611,0,0,1-3.063-.363l-2.826-1.7A9.92,9.92,0,0,1,8.87,32.562a10.22,10.22,0,0,1-6.62-1.077l.191.972a9.49,9.49,0,0,0,4.254,6.327l8.269,4.986a3.592,3.592,0,0,0,3.22.306l15.383-6.141c2.21-.882,3.192-3.777,2.128-6.271" transform="translate(0.905 11.608)" fill="#2e3192"/>
      <path id="Path_210" data-name="Path 210" d="M4.281,30.549l-.691.868.05-1.245q.318.2.641.377" transform="translate(1.443 12.129)" fill="#2e3192"/>
    </g>
  </g>
</svg>
