<svg xmlns="http://www.w3.org/2000/svg" width="257.342" height="99.87" viewBox="0 0 257.342 99.87">
  <g id="Group_171" data-name="Group 171" transform="translate(-43.617 -48.15)">
    <path id="Path_220" data-name="Path 220" d="M114.387,115.533c-.364-.678-1.968-4.73-1.968-4.73L90,50.119l-12.4,32.9c-8.615-2.764-19.875-4.45-33.978-2.894a76.166,76.166,0,0,1,32.551,6.679l-8.809,23.37a49.653,49.653,0,0,1-2.21,5.7,7.752,7.752,0,0,1-4.468,3.693H72.289v-.793s-4.067.511-2.535-4.768l9.443-25.7a54.4,54.4,0,0,1,26.462,30.814h-.913v.85h14.132v-1.021A6.407,6.407,0,0,1,114.387,115.533ZM80.736,84.116,88.143,63.95,99.519,95.858h0S93.519,88.945,80.736,84.116Z" transform="translate(0 1.257)" fill="#092e7d"/>
    <path id="Path_221" data-name="Path 221" d="M154.743,118.949v1.021h14.134v-.85h-.913a54.389,54.389,0,0,1,26.46-30.814l9.443,25.7c1.534,5.279-2.535,4.768-2.535,4.768v.793h11.609a7.757,7.757,0,0,1-4.468-3.693,49.648,49.648,0,0,1-2.21-5.7l-8.809-23.37A76.169,76.169,0,0,1,230,80.127c-14.1-1.557-25.362.129-33.978,2.894l-12.4-32.9L161.2,110.8s-1.6,4.052-1.966,4.73A6.409,6.409,0,0,1,154.743,118.949ZM174.1,95.858h0L185.478,63.95l7.408,20.167C180.1,88.945,174.1,95.858,174.1,95.858Z" transform="translate(70.954 1.257)" fill="#092e7d"/>
    <path id="Path_222" data-name="Path 222" d="M106.274,79.734c3.541,2.42,8.343,2.112,14.139,3.093,7.068,1.2,13.488,3.074,13.881,7.286.1,1.039.918,3.593-3.716,7.488-4.083,3.433-12,9.4-33.389,15.376a18.271,18.271,0,0,0-2.33.678,1.724,1.724,0,0,0-.8,2.376l.113.993H92.926l-4.086-10.7L90,106.1a3.853,3.853,0,0,0,3.706,2.759,16.238,16.238,0,0,0,2.337-.39c4.2-1,17.711-4.509,27.7-10.372,6.769-3.973,1.045-7.535-2.994-9.208a33.183,33.183,0,0,0-5.538-1.555c-5.286-1.065-17.45-4.193-16.555-10.375,1.15-7.955,8.3-12.6,23.5-19.1l.511-.228-.115-2.9h.909l5.051,9.2-.739.737a5.84,5.84,0,0,0-4.216-1.833S97.749,73.9,106.274,79.734Z" transform="translate(28.875 4.203)" fill="#092e7d"/>
    <path id="Path_223" data-name="Path 223" d="M155.067,79.734c-3.541,2.42-8.343,2.112-14.139,3.093-7.067,1.2-13.487,3.074-13.881,7.286-.1,1.039-.916,3.593,3.716,7.488,4.085,3.433,12,9.4,33.389,15.376a18.271,18.271,0,0,1,2.33.678,1.724,1.724,0,0,1,.8,2.376l-.113.993h1.249l4.086-10.7-1.163-.226a3.853,3.853,0,0,1-3.706,2.759,16.237,16.237,0,0,1-2.336-.39c-4.2-1-17.709-4.509-27.7-10.372-6.769-3.973-1.045-7.535,2.994-9.208a33.155,33.155,0,0,1,5.54-1.555c5.284-1.065,17.448-4.193,16.554-10.375-1.15-7.955-8.3-12.6-23.5-19.1l-.51-.228.113-2.9h-.908l-5.052,9.2.737.737a5.84,5.84,0,0,1,4.216-1.833S163.594,73.9,155.067,79.734Z" transform="translate(53.197 4.203)" fill="#092e7d"/>
    <path id="Path_224" data-name="Path 224" d="M232.023,48.19c-2.22,3.744-4.168,3.187-4.168,3.187H78.284s-1.948.557-4.167-3.187c0,0-1.665-.6-.37,2.866l3.467,8.786L78,59.333l.283-1.532h71.575v59.148a7.97,7.97,0,0,1-3.71,3.062h-.474v1.216h14.789v-1.216h-.947a9.638,9.638,0,0,1-3.236-3.062V57.8h71.573l.283,1.532.786.508,3.469-8.786C233.688,47.588,232.023,48.19,232.023,48.19Z" transform="translate(18.924 0)" fill="#092e7d"/>
    <g id="Group_152" data-name="Group 152" transform="translate(59.867 132.355)">
      <rect id="Rectangle_216" data-name="Rectangle 216" width="224.252" height="15.665" fill="#dc0626"/>
      <g id="Group_151" data-name="Group 151" transform="translate(4.551 3.973)">
        <path id="Path_225" data-name="Path 225" d="M63.423,109.02H62.157l-.691-1.647H58.239l-.7,1.647H56.312l3-6.869h1.109Zm-3.575-5.437-1.17,2.728h2.348Z" transform="translate(-56.312 -101.848)" fill="#fff"/>
        <path id="Path_226" data-name="Path 226" d="M65.97,102.18h1.19V109h-1L62.4,104.148V109H61.217V102.18h1.109L65.97,106.9Z" transform="translate(-53.18 -101.829)" fill="#fff"/>
        <path id="Path_227" data-name="Path 227" d="M72.522,109.02H71.255l-.691-1.647H67.338l-.7,1.647H65.409l3-6.869H69.52Zm-3.577-5.437-1.168,2.728h2.348Z" transform="translate(-50.504 -101.848)" fill="#fff"/>
        <path id="Path_228" data-name="Path 228" d="M70.314,102.18H71.5v5.74H75.09V109H70.314Z" transform="translate(-47.372 -101.829)" fill="#fff"/>
        <path id="Path_229" data-name="Path 229" d="M80.293,106.99a3.423,3.423,0,0,1-.741,1.126,3.573,3.573,0,0,1-1.129.765,3.621,3.621,0,0,1-1.442.282,3.666,3.666,0,0,1-1.442-.277,3.371,3.371,0,0,1-1.852-1.876,3.659,3.659,0,0,1,0-2.728,3.393,3.393,0,0,1,.739-1.126A3.557,3.557,0,0,1,77,102.109a3.666,3.666,0,0,1,1.442.277,3.385,3.385,0,0,1,1.852,1.876,3.68,3.68,0,0,1,0,2.728Zm-1.165-2.284a2.368,2.368,0,0,0-.477-.775,2.322,2.322,0,0,0-2.6-.531,2.2,2.2,0,0,0-.724.516,2.359,2.359,0,0,0-.474.77,2.681,2.681,0,0,0,0,1.881,2.381,2.381,0,0,0,.478.773,2.263,2.263,0,0,0,.734.526,2.358,2.358,0,0,0,1.866,0,2.185,2.185,0,0,0,.726-.516,2.354,2.354,0,0,0,.472-.77,2.652,2.652,0,0,0,0-1.879Z" transform="translate(-45.386 -101.875)" fill="#fff"/>
        <path id="Path_230" data-name="Path 230" d="M84.152,108.511a4.2,4.2,0,0,1-.662.341,4.3,4.3,0,0,1-.765.229,4.4,4.4,0,0,1-.857.082,3.787,3.787,0,0,1-1.452-.269,3.256,3.256,0,0,1-1.116-.739,3.311,3.311,0,0,1-.716-1.116,3.771,3.771,0,0,1-.254-1.393,3.631,3.631,0,0,1,.259-1.365,3.411,3.411,0,0,1,.726-1.126,3.471,3.471,0,0,1,1.114-.765,3.544,3.544,0,0,1,1.419-.282,4.943,4.943,0,0,1,.814.062,3.746,3.746,0,0,1,.677.182,3.314,3.314,0,0,1,.588.287,4.17,4.17,0,0,1,.541.395l-.76.906a4.561,4.561,0,0,0-.4-.3,2.512,2.512,0,0,0-.429-.228,2.616,2.616,0,0,0-.492-.147,3.12,3.12,0,0,0-.59-.052,2.029,2.029,0,0,0-.872.19,2.166,2.166,0,0,0-.7.523,2.516,2.516,0,0,0-.469.772,2.572,2.572,0,0,0-.169.937,2.806,2.806,0,0,0,.164.975,2.276,2.276,0,0,0,.474.777,2.207,2.207,0,0,0,.731.513,2.364,2.364,0,0,0,.95.185,2.821,2.821,0,0,0,.909-.143,2.6,2.6,0,0,0,.737-.375v-1.285H81.809v-1.042h2.905V108.1A5.229,5.229,0,0,1,84.152,108.511Z" transform="translate(-42.253 -101.875)" fill="#fff"/>
        <path id="Path_231" data-name="Path 231" d="M85.909,104.351a.708.708,0,0,0,.251.274,1.985,1.985,0,0,0,.5.234q.317.106.808.224a7.534,7.534,0,0,1,.952.3,2.379,2.379,0,0,1,.688.4,1.6,1.6,0,0,1,.415.555,1.826,1.826,0,0,1,.141.744,2.011,2.011,0,0,1-.179.868,1.824,1.824,0,0,1-.5.642,2.167,2.167,0,0,1-.765.4,3.331,3.331,0,0,1-.983.136,4.3,4.3,0,0,1-1.511-.267,4.131,4.131,0,0,1-1.334-.824l.719-.857a4.184,4.184,0,0,0,1,.657,2.741,2.741,0,0,0,1.15.229,1.476,1.476,0,0,0,.882-.234.739.739,0,0,0,.326-.632.853.853,0,0,0-.062-.333.684.684,0,0,0-.236-.267,2.009,2.009,0,0,0-.469-.229,7.916,7.916,0,0,0-.777-.223,8.248,8.248,0,0,1-.972-.283,2.417,2.417,0,0,1-.713-.39,1.545,1.545,0,0,1-.439-.564,1.934,1.934,0,0,1-.152-.809,1.871,1.871,0,0,1,.174-.814,1.911,1.911,0,0,1,.478-.628,2.135,2.135,0,0,1,.734-.4,2.967,2.967,0,0,1,.932-.141,3.915,3.915,0,0,1,1.35.22,4.041,4.041,0,0,1,1.126.637l-.644.906a4.268,4.268,0,0,0-.924-.521,2.529,2.529,0,0,0-.927-.18,1.259,1.259,0,0,0-.818.239.725.725,0,0,0-.293.58A.808.808,0,0,0,85.909,104.351Z" transform="translate(-38.384 -101.867)" fill="#fff"/>
        <path id="Path_232" data-name="Path 232" d="M91.972,108.237a2.547,2.547,0,0,1-1.237.269,2.648,2.648,0,0,1-1.909-.783,2.7,2.7,0,0,1-.559-.849,2.661,2.661,0,0,1-.2-1.037,2.723,2.723,0,0,1,.762-1.9,2.846,2.846,0,0,1,3.131-.554,2.814,2.814,0,0,1,.842.642l-.729.79a2.719,2.719,0,0,0-.582-.464,1.467,1.467,0,0,0-.754-.18,1.368,1.368,0,0,0-.595.131,1.451,1.451,0,0,0-.467.356,1.76,1.76,0,0,0-.308.521,1.819,1.819,0,0,0-.111.639,1.88,1.88,0,0,0,.111.652,1.633,1.633,0,0,0,.318.528,1.525,1.525,0,0,0,.487.354,1.45,1.45,0,0,0,.624.133,1.47,1.47,0,0,0,.736-.18,2.854,2.854,0,0,0,.6-.464l.713.7A3.233,3.233,0,0,1,91.972,108.237Z" transform="translate(-36.038 -101.218)" fill="#fff"/>
        <path id="Path_233" data-name="Path 233" d="M92.673,109.115h-1.19V102h1.19v2.776a2.727,2.727,0,0,1,.277-.349,1.8,1.8,0,0,1,.785-.492,1.836,1.836,0,0,1,.541-.074,1.711,1.711,0,0,1,1.35.536,2.089,2.089,0,0,1,.477,1.442v3.274h-1.19V106.2a1.354,1.354,0,0,0-.285-.927,1.012,1.012,0,0,0-.806-.326,1.1,1.1,0,0,0-.831.334,1.309,1.309,0,0,0-.318.939Z" transform="translate(-33.855 -101.943)" fill="#fff"/>
        <path id="Path_234" data-name="Path 234" d="M100.123,106.859a2.653,2.653,0,0,1-1.445,1.432,2.925,2.925,0,0,1-2.187,0,2.615,2.615,0,0,1-1.437-1.422,2.723,2.723,0,0,1,0-2.084,2.668,2.668,0,0,1,.574-.857,2.737,2.737,0,0,1,.867-.58,2.938,2.938,0,0,1,2.192,0,2.684,2.684,0,0,1,.868.573,2.67,2.67,0,0,1,.773,1.9A2.586,2.586,0,0,1,100.123,106.859Zm-1.094-1.665a1.679,1.679,0,0,0-.324-.533,1.529,1.529,0,0,0-.495-.36,1.6,1.6,0,0,0-1.267,0,1.526,1.526,0,0,0-.49.356,1.546,1.546,0,0,0-.308.521,1.855,1.855,0,0,0-.108.639,1.786,1.786,0,0,0,.118.647,1.605,1.605,0,0,0,.323.533,1.56,1.56,0,0,0,.495.354,1.459,1.459,0,0,0,.623.133,1.515,1.515,0,0,0,.646-.133,1.5,1.5,0,0,0,.488-.354,1.568,1.568,0,0,0,.31-.523,1.885,1.885,0,0,0,.107-.637A1.774,1.774,0,0,0,99.029,105.194Z" transform="translate(-31.706 -101.218)" fill="#fff"/>
        <path id="Path_235" data-name="Path 235" d="M98.82,109.115V102h1.19v7.113Z" transform="translate(-29.17 -101.943)" fill="#fff"/>
        <path id="Path_236" data-name="Path 236" d="M103.614,108.378v-.634a2.162,2.162,0,0,1-.672.526,2.1,2.1,0,0,1-.995.215,2.385,2.385,0,0,1-.7-.1,1.744,1.744,0,0,1-.58-.3,1.531,1.531,0,0,1-.4-.5,1.5,1.5,0,0,1-.151-.687v-.02a1.606,1.606,0,0,1,.156-.731,1.4,1.4,0,0,1,.434-.516,1.942,1.942,0,0,1,.662-.306,3.2,3.2,0,0,1,.834-.1,4.557,4.557,0,0,1,.793.059,4.768,4.768,0,0,1,.629.156v-.126a1.03,1.03,0,0,0-.326-.819,1.4,1.4,0,0,0-.942-.282,3.115,3.115,0,0,0-.778.087,5.292,5.292,0,0,0-.691.234l-.321-.945a5.265,5.265,0,0,1,.877-.311,4.29,4.29,0,0,1,1.081-.116,2.283,2.283,0,0,1,1.7.569,2.2,2.2,0,0,1,.555,1.6v3.051Zm.031-2.182a3.043,3.043,0,0,0-.533-.147,3.563,3.563,0,0,0-.647-.057,1.516,1.516,0,0,0-.867.215.7.7,0,0,0-.313.614v.018a.64.64,0,0,0,.288.565,1.222,1.222,0,0,0,.706.195,1.782,1.782,0,0,0,.541-.079,1.376,1.376,0,0,0,.433-.218,1.025,1.025,0,0,0,.288-.341.979.979,0,0,0,.1-.444Z" transform="translate(-28.342 -101.206)" fill="#fff"/>
        <path id="Path_237" data-name="Path 237" d="M104.861,108.386h-1.188v-5.145h1.188v1.16a2.26,2.26,0,0,1,.691-.936,1.655,1.655,0,0,1,1.131-.321v1.247h-.067a1.949,1.949,0,0,0-.713.126,1.5,1.5,0,0,0-.555.38,1.7,1.7,0,0,0-.359.639,2.815,2.815,0,0,0-.128.89Z" transform="translate(-26.072 -101.215)" fill="#fff"/>
        <path id="Path_238" data-name="Path 238" d="M109.671,107.573a1.4,1.4,0,0,1-.4.5,1.809,1.809,0,0,1-.608.3,2.714,2.714,0,0,1-.75.1,3.427,3.427,0,0,1-1.126-.195,3.606,3.606,0,0,1-1.057-.573l.526-.8a3.393,3.393,0,0,0,.852.472,2.372,2.372,0,0,0,.832.162,1,1,0,0,0,.592-.152.471.471,0,0,0,.208-.4v-.021a.38.38,0,0,0-.092-.252.851.851,0,0,0-.254-.19,2.1,2.1,0,0,0-.37-.146l-.434-.131c-.188-.059-.378-.125-.569-.2a2.007,2.007,0,0,1-.518-.277,1.384,1.384,0,0,1-.374-.418,1.2,1.2,0,0,1-.147-.619v-.02a1.459,1.459,0,0,1,.531-1.15,1.77,1.77,0,0,1,.585-.311,2.323,2.323,0,0,1,.716-.108,3.3,3.3,0,0,1,.985.157,3.535,3.535,0,0,1,.9.428l-.467.839a3.855,3.855,0,0,0-.75-.356,2.126,2.126,0,0,0-.7-.131.851.851,0,0,0-.533.146.447.447,0,0,0-.19.37v.018a.334.334,0,0,0,.1.239.945.945,0,0,0,.257.185,2.655,2.655,0,0,0,.37.156c.139.049.283.1.434.141.187.059.377.128.565.2a2.418,2.418,0,0,1,.511.288,1.419,1.419,0,0,1,.375.415,1.141,1.141,0,0,1,.146.593v.02A1.62,1.62,0,0,1,109.671,107.573Z" transform="translate(-24.762 -101.211)" fill="#fff"/>
        <path id="Path_239" data-name="Path 239" d="M109.993,109.115H108.8V102h1.188v2.776a2.877,2.877,0,0,1,.277-.349,1.792,1.792,0,0,1,.786-.492,1.825,1.825,0,0,1,.539-.074,1.709,1.709,0,0,1,1.35.536,2.089,2.089,0,0,1,.477,1.442v3.274h-1.188V106.2a1.363,1.363,0,0,0-.285-.927,1.018,1.018,0,0,0-.808-.326,1.094,1.094,0,0,0-.829.334,1.309,1.309,0,0,0-.32.939Z" transform="translate(-22.795 -101.943)" fill="#fff"/>
        <path id="Path_240" data-name="Path 240" d="M112.355,103.159v-1.121h1.276v1.121Zm.048,5.933v-5.145h1.188v5.145Z" transform="translate(-20.528 -101.92)" fill="#fff"/>
        <path id="Path_241" data-name="Path 241" d="M119.015,106.957a2.587,2.587,0,0,1-.537.842,2.222,2.222,0,0,1-.768.521,2.35,2.35,0,0,1-.893.175,1.891,1.891,0,0,1-1.052-.272,2.688,2.688,0,0,1-.691-.634l.01,2.358h-1.188v-6.7h1.188v.859a2.544,2.544,0,0,1,.7-.688,1.841,1.841,0,0,1,1.04-.277,2.3,2.3,0,0,1,.885.175,2.233,2.233,0,0,1,.764.521,2.674,2.674,0,0,1,.539.842,2.981,2.981,0,0,1,.2,1.14A3.047,3.047,0,0,1,119.015,106.957Zm-1.108-1.827a1.563,1.563,0,0,0-.316-.521,1.391,1.391,0,0,0-.469-.333,1.412,1.412,0,0,0-.569-.116,1.455,1.455,0,0,0-.575.116,1.413,1.413,0,0,0-.478.338,1.684,1.684,0,0,0-.326.521,1.977,1.977,0,0,0,0,1.363,1.684,1.684,0,0,0,.326.521,1.387,1.387,0,0,0,.478.336,1.427,1.427,0,0,0,.575.118,1.385,1.385,0,0,0,.569-.118,1.364,1.364,0,0,0,.469-.331,1.563,1.563,0,0,0,.316-.521,2.084,2.084,0,0,0,0-1.373Z" transform="translate(-19.545 -101.218)" fill="#fff"/>
        <path id="Path_242" data-name="Path 242" d="M122.521,109h-1.208v-5.71h-2.163V102.18h5.533v1.111h-2.163Z" transform="translate(-16.189 -101.829)" fill="#fff"/>
        <path id="Path_243" data-name="Path 243" d="M123.906,107.2a1.457,1.457,0,0,0,.973.337,1.711,1.711,0,0,0,.76-.157,2.44,2.44,0,0,0,.632-.457l.693.614a2.846,2.846,0,0,1-.883.7,2.619,2.619,0,0,1-1.222.264,2.729,2.729,0,0,1-1.037-.195,2.5,2.5,0,0,1-.837-.546,2.527,2.527,0,0,1-.56-.842,2.834,2.834,0,0,1-.2-1.1,2.918,2.918,0,0,1,.185-1.042,2.6,2.6,0,0,1,.521-.852,2.5,2.5,0,0,1,.795-.58,2.361,2.361,0,0,1,1.013-.215,2.467,2.467,0,0,1,1.077.223,2.236,2.236,0,0,1,.77.6,2.611,2.611,0,0,1,.462.886,3.569,3.569,0,0,1,.157,1.063c0,.051,0,.1,0,.156s-.01.106-.016.165H123.4A1.55,1.55,0,0,0,123.906,107.2Zm2.123-1.748a2.062,2.062,0,0,0-.126-.531,1.4,1.4,0,0,0-.264-.429,1.255,1.255,0,0,0-.395-.287,1.2,1.2,0,0,0-.521-.107,1.187,1.187,0,0,0-.9.375,1.686,1.686,0,0,0-.433.978Z" transform="translate(-14.229 -101.218)" fill="#fff"/>
        <path id="Path_244" data-name="Path 244" d="M129.524,107.573a1.361,1.361,0,0,1-.4.5,1.779,1.779,0,0,1-.608.3,2.705,2.705,0,0,1-.75.1,3.418,3.418,0,0,1-1.124-.195,3.594,3.594,0,0,1-1.058-.573l.526-.8a3.373,3.373,0,0,0,.854.472,2.372,2.372,0,0,0,.832.162.994.994,0,0,0,.59-.152.471.471,0,0,0,.208-.4v-.021a.372.372,0,0,0-.092-.252.83.83,0,0,0-.254-.19,2.085,2.085,0,0,0-.369-.146l-.434-.131c-.188-.059-.38-.125-.57-.2a2,2,0,0,1-.516-.277,1.389,1.389,0,0,1-.375-.418,1.211,1.211,0,0,1-.147-.619v-.02a1.5,1.5,0,0,1,.143-.654,1.475,1.475,0,0,1,.39-.5,1.747,1.747,0,0,1,.583-.311,2.333,2.333,0,0,1,.718-.108,3.292,3.292,0,0,1,.983.157,3.546,3.546,0,0,1,.906.428l-.467.839a3.946,3.946,0,0,0-.75-.356,2.135,2.135,0,0,0-.7-.131.845.845,0,0,0-.531.146.447.447,0,0,0-.19.37v.018a.333.333,0,0,0,.1.239.971.971,0,0,0,.257.185,2.681,2.681,0,0,0,.372.156c.139.049.283.1.434.141.187.059.375.128.564.2a2.431,2.431,0,0,1,.513.288,1.391,1.391,0,0,1,.374.415,1.125,1.125,0,0,1,.146.593v.02A1.6,1.6,0,0,1,129.524,107.573Z" transform="translate(-12.085 -101.211)" fill="#fff"/>
        <path id="Path_245" data-name="Path 245" d="M130.193,107.288a.645.645,0,0,0,.164.495.677.677,0,0,0,.469.151,1.621,1.621,0,0,0,.731-.175v.965a2.05,2.05,0,0,1-.477.193,2.247,2.247,0,0,1-.585.069,2.218,2.218,0,0,1-.6-.077,1.238,1.238,0,0,1-.477-.254,1.134,1.134,0,0,1-.31-.464,2.069,2.069,0,0,1-.108-.718v-2.717h-.652v-1H129v-1.412h1.19v1.412h1.381v1h-1.381Z" transform="translate(-10.315 -101.727)" fill="#fff"/>
        <path id="Path_246" data-name="Path 246" d="M135.473,104.032v.975h-1.345v4.131H132.94v-4.131h-.654v-.985h.654v-.37a1.735,1.735,0,0,1,.413-1.271,1.59,1.59,0,0,1,1.175-.415,3.144,3.144,0,0,1,.536.039,3.554,3.554,0,0,1,.418.1v.993a2.965,2.965,0,0,0-.336-.092,1.689,1.689,0,0,0-.356-.034c-.454,0-.682.259-.682.78v.282Z" transform="translate(-7.802 -101.966)" fill="#fff"/>
        <path id="Path_247" data-name="Path 247" d="M139.656,106.859a2.663,2.663,0,0,1-1.447,1.432,2.925,2.925,0,0,1-2.187,0,2.682,2.682,0,0,1-.859-4.363,2.75,2.75,0,0,1,1.965-.795,2.793,2.793,0,0,1,1.1.21,2.677,2.677,0,0,1,.867.573,2.662,2.662,0,0,1,.775,1.9A2.586,2.586,0,0,1,139.656,106.859Zm-1.095-1.665a1.714,1.714,0,0,0-.326-.533,1.541,1.541,0,0,0-.493-.36,1.527,1.527,0,0,0-1.758.356,1.546,1.546,0,0,0-.308.521,1.855,1.855,0,0,0-.107.639,1.784,1.784,0,0,0,.116.647,1.633,1.633,0,0,0,.323.533,1.579,1.579,0,0,0,.495.354,1.461,1.461,0,0,0,.624.133,1.513,1.513,0,0,0,.644-.133,1.5,1.5,0,0,0,.488-.354,1.572,1.572,0,0,0,.311-.523,1.884,1.884,0,0,0,.1-.637A1.773,1.773,0,0,0,138.561,105.194Z" transform="translate(-6.465 -101.218)" fill="#fff"/>
        <path id="Path_248" data-name="Path 248" d="M139.5,108.386h-1.188v-5.145H139.5v1.16a2.246,2.246,0,0,1,.691-.936,1.655,1.655,0,0,1,1.131-.321v1.247h-.069a1.94,1.94,0,0,0-.711.126,1.5,1.5,0,0,0-.555.38,1.706,1.706,0,0,0-.36.639,2.864,2.864,0,0,0-.126.89Z" transform="translate(-3.955 -101.215)" fill="#fff"/>
        <path id="Path_249" data-name="Path 249" d="M146.71,109l-1.681-2.377h-1.5V109h-1.19V102.18h3.039a3.48,3.48,0,0,1,1.057.151,2.319,2.319,0,0,1,.8.429,1.842,1.842,0,0,1,.5.682,2.436,2.436,0,0,1,.054,1.666,1.994,1.994,0,0,1-.336.595,2.066,2.066,0,0,1-.511.439,2.543,2.543,0,0,1-.659.277L148.122,109Zm-.39-5.45a1.672,1.672,0,0,0-1.047-.29h-1.748v2.3h1.758a1.573,1.573,0,0,0,1.027-.313,1.04,1.04,0,0,0,.38-.842A1.019,1.019,0,0,0,146.32,103.551Z" transform="translate(-1.386 -101.829)" fill="#fff"/>
        <path id="Path_250" data-name="Path 250" d="M146.415,103.159v-1.121h1.276v1.121Zm.048,5.933v-5.145h1.19v5.145Z" transform="translate(1.219 -101.92)" fill="#fff"/>
        <path id="Path_251" data-name="Path 251" d="M151.645,107.573a1.361,1.361,0,0,1-.4.5,1.779,1.779,0,0,1-.608.3,2.705,2.705,0,0,1-.75.1,3.418,3.418,0,0,1-1.124-.195,3.614,3.614,0,0,1-1.058-.573l.528-.8a3.338,3.338,0,0,0,.852.472,2.372,2.372,0,0,0,.832.162.994.994,0,0,0,.59-.152.471.471,0,0,0,.208-.4v-.021a.378.378,0,0,0-.09-.252.86.86,0,0,0-.256-.19,2.038,2.038,0,0,0-.369-.146l-.434-.131q-.283-.088-.57-.2a2,2,0,0,1-.516-.277,1.389,1.389,0,0,1-.375-.418,1.211,1.211,0,0,1-.146-.619v-.02a1.5,1.5,0,0,1,.141-.654,1.475,1.475,0,0,1,.39-.5,1.763,1.763,0,0,1,.583-.311,2.333,2.333,0,0,1,.718-.108,3.292,3.292,0,0,1,.983.157,3.546,3.546,0,0,1,.906.428l-.467.839a3.947,3.947,0,0,0-.75-.356,2.127,2.127,0,0,0-.7-.131.845.845,0,0,0-.531.146.447.447,0,0,0-.19.37v.018a.333.333,0,0,0,.1.239.955.955,0,0,0,.259.185,2.575,2.575,0,0,0,.37.156c.139.049.283.1.434.141.187.059.375.128.564.2a2.43,2.43,0,0,1,.513.288,1.391,1.391,0,0,1,.374.415,1.125,1.125,0,0,1,.146.593v.02A1.6,1.6,0,0,1,151.645,107.573Z" transform="translate(2.039 -101.211)" fill="#fff"/>
        <path id="Path_252" data-name="Path 252" d="M150.791,103.159v-1.121h1.276v1.121Zm.048,5.933v-5.145h1.19v5.145Z" transform="translate(4.013 -101.92)" fill="#fff"/>
        <path id="Path_253" data-name="Path 253" d="M153.521,108.389h-1.19v-5.145h1.19v.808a2.589,2.589,0,0,1,.277-.349,1.693,1.693,0,0,1,.349-.29,1.766,1.766,0,0,1,.436-.2,1.833,1.833,0,0,1,.539-.074,1.707,1.707,0,0,1,1.35.536,2.081,2.081,0,0,1,.477,1.442v3.274H155.76v-2.917a1.362,1.362,0,0,0-.285-.927,1.012,1.012,0,0,0-.806-.326,1.1,1.1,0,0,0-.831.334,1.309,1.309,0,0,0-.318.939Z" transform="translate(4.997 -101.218)" fill="#fff"/>
        <path id="Path_254" data-name="Path 254" d="M160.307,109.333a3,3,0,0,1-2.045.634,4.36,4.36,0,0,1-2.3-.613l.439-.888a3.917,3.917,0,0,0,.857.4,3.14,3.14,0,0,0,.973.146,1.678,1.678,0,0,0,1.208-.4,1.568,1.568,0,0,0,.419-1.186v-.4a2.766,2.766,0,0,1-.75.688,1.972,1.972,0,0,1-1.06.265,2.4,2.4,0,0,1-.877-.161,2.21,2.21,0,0,1-.746-.472,2.311,2.311,0,0,1-.523-.76,2.782,2.782,0,0,1,0-2.046,2.311,2.311,0,0,1,.523-.76,2.237,2.237,0,0,1,.75-.477,2.341,2.341,0,0,1,.872-.165,2.031,2.031,0,0,1,1.076.261,2.934,2.934,0,0,1,.724.624v-.778h1.18v4.093A2.517,2.517,0,0,1,160.307,109.333Zm-.56-4.355a1.356,1.356,0,0,0-.326-.451,1.468,1.468,0,0,0-.482-.283,1.665,1.665,0,0,0-.58-.1,1.56,1.56,0,0,0-.575.1,1.453,1.453,0,0,0-.464.283,1.309,1.309,0,0,0-.311.446,1.47,1.47,0,0,0-.111.58,1.4,1.4,0,0,0,.428,1.031,1.324,1.324,0,0,0,.464.29,1.571,1.571,0,0,0,.57.1,1.663,1.663,0,0,0,.58-.1,1.4,1.4,0,0,0,.482-.29,1.417,1.417,0,0,0,.326-.444,1.322,1.322,0,0,0,.121-.577A1.374,1.374,0,0,0,159.747,104.978Z" transform="translate(7.153 -101.218)" fill="#fff"/>
        <path id="Path_255" data-name="Path 255" d="M168.179,109.02h-1.267l-.691-1.647h-3.226l-.7,1.647h-1.227l3-6.869h1.109Zm-3.575-5.437-1.17,2.728h2.348Z" transform="translate(10.574 -101.848)" fill="#fff"/>
        <path id="Path_256" data-name="Path 256" d="M169.578,107.573a1.394,1.394,0,0,1-.4.5,1.809,1.809,0,0,1-.608.3,2.714,2.714,0,0,1-.75.1,3.428,3.428,0,0,1-1.126-.195,3.606,3.606,0,0,1-1.057-.573l.526-.8a3.373,3.373,0,0,0,.854.472,2.356,2.356,0,0,0,.831.162,1,1,0,0,0,.592-.152.471.471,0,0,0,.208-.4v-.021a.38.38,0,0,0-.092-.252.851.851,0,0,0-.254-.19,2.105,2.105,0,0,0-.37-.146l-.433-.131q-.285-.088-.57-.2a1.97,1.97,0,0,1-.516-.277,1.389,1.389,0,0,1-.375-.418,1.2,1.2,0,0,1-.147-.619v-.02a1.459,1.459,0,0,1,.531-1.15,1.771,1.771,0,0,1,.585-.311,2.33,2.33,0,0,1,.716-.108,3.3,3.3,0,0,1,.985.157,3.546,3.546,0,0,1,.906.428l-.469.839a3.854,3.854,0,0,0-.75-.356,2.119,2.119,0,0,0-.7-.131.845.845,0,0,0-.531.146.445.445,0,0,0-.192.37v.018a.334.334,0,0,0,.1.239.971.971,0,0,0,.257.185,2.678,2.678,0,0,0,.372.156c.139.049.283.1.433.141.188.059.377.128.565.2a2.473,2.473,0,0,1,.513.288,1.436,1.436,0,0,1,.374.415,1.125,1.125,0,0,1,.146.593v.02A1.6,1.6,0,0,1,169.578,107.573Z" transform="translate(13.49 -101.211)" fill="#fff"/>
        <path id="Path_257" data-name="Path 257" d="M173.833,106.957a2.584,2.584,0,0,1-.536.842,2.228,2.228,0,0,1-.77.521,2.343,2.343,0,0,1-.893.175,1.881,1.881,0,0,1-1.05-.272,2.663,2.663,0,0,1-.691-.634l.01,2.358h-1.19v-6.7h1.19v.859a2.537,2.537,0,0,1,.7-.688,1.841,1.841,0,0,1,1.04-.277,2.291,2.291,0,0,1,.885.175,2.233,2.233,0,0,1,.764.521,2.646,2.646,0,0,1,.539.842,2.982,2.982,0,0,1,.2,1.14A3.047,3.047,0,0,1,173.833,106.957Zm-1.108-1.827a1.56,1.56,0,0,0-.315-.521,1.407,1.407,0,0,0-.469-.333,1.425,1.425,0,0,0-.57-.116,1.461,1.461,0,0,0-.575.116,1.413,1.413,0,0,0-.478.338,1.684,1.684,0,0,0-.326.521,1.976,1.976,0,0,0,0,1.363,1.684,1.684,0,0,0,.326.521,1.386,1.386,0,0,0,.478.336,1.433,1.433,0,0,0,.575.118,1.4,1.4,0,0,0,.57-.118,1.38,1.38,0,0,0,.469-.331,1.56,1.56,0,0,0,.315-.521,2.084,2.084,0,0,0,0-1.373Z" transform="translate(15.457 -101.218)" fill="#fff"/>
        <path id="Path_258" data-name="Path 258" d="M172.561,103.159v-1.121h1.276v1.121Zm.048,5.933v-5.145H173.8v5.145Z" transform="translate(17.914 -101.92)" fill="#fff"/>
        <path id="Path_259" data-name="Path 259" d="M175.289,108.386H174.1v-5.145h1.188v1.16a2.246,2.246,0,0,1,.691-.936,1.655,1.655,0,0,1,1.131-.321v1.247h-.067a1.943,1.943,0,0,0-.713.126,1.5,1.5,0,0,0-.555.38,1.706,1.706,0,0,0-.36.639,2.865,2.865,0,0,0-.126.89Z" transform="translate(18.897 -101.215)" fill="#fff"/>
        <path id="Path_260" data-name="Path 260" d="M179.542,108.378v-.634a2.18,2.18,0,0,1-.672.526,2.1,2.1,0,0,1-.995.215,2.4,2.4,0,0,1-.7-.1,1.736,1.736,0,0,1-.578-.3,1.471,1.471,0,0,1-.551-1.185v-.02a1.606,1.606,0,0,1,.156-.731,1.406,1.406,0,0,1,.433-.516,1.95,1.95,0,0,1,.664-.306,3.2,3.2,0,0,1,.832-.1,4.564,4.564,0,0,1,.795.059,4.769,4.769,0,0,1,.629.156v-.126a1.025,1.025,0,0,0-.328-.819,1.393,1.393,0,0,0-.94-.282,3.1,3.1,0,0,0-.778.087,5.21,5.21,0,0,0-.691.234l-.323-.945a5.336,5.336,0,0,1,.878-.311,4.29,4.29,0,0,1,1.081-.116,2.283,2.283,0,0,1,1.7.569,2.21,2.21,0,0,1,.555,1.6v3.051Zm.03-2.182a2.982,2.982,0,0,0-.531-.147,3.577,3.577,0,0,0-.647-.057,1.522,1.522,0,0,0-.868.215.7.7,0,0,0-.311.614v.018a.637.637,0,0,0,.288.565,1.217,1.217,0,0,0,.7.195,1.775,1.775,0,0,0,.541-.079,1.368,1.368,0,0,0,.434-.218,1.024,1.024,0,0,0,.288-.341.977.977,0,0,0,.1-.444Z" transform="translate(20.138 -101.206)" fill="#fff"/>
        <path id="Path_261" data-name="Path 261" d="M180.789,108.389H179.6v-5.145h1.188v.808a2.879,2.879,0,0,1,.277-.349,1.792,1.792,0,0,1,.786-.492,1.825,1.825,0,0,1,.539-.074,1.709,1.709,0,0,1,1.35.536,2.089,2.089,0,0,1,.477,1.442v3.274h-1.19v-2.917a1.362,1.362,0,0,0-.283-.927,1.018,1.018,0,0,0-.808-.326,1.091,1.091,0,0,0-.829.334,1.309,1.309,0,0,0-.319.939Z" transform="translate(22.409 -101.218)" fill="#fff"/>
        <path id="Path_262" data-name="Path 262" d="M184.731,107.288a.645.645,0,0,0,.164.495.677.677,0,0,0,.469.151,1.621,1.621,0,0,0,.731-.175v.965a2.049,2.049,0,0,1-.477.193,2.247,2.247,0,0,1-.585.069,2.218,2.218,0,0,1-.6-.077,1.238,1.238,0,0,1-.477-.254,1.131,1.131,0,0,1-.308-.464,2.028,2.028,0,0,1-.11-.718v-2.717h-.652v-1h.652v-1.412h1.19v1.412h1.381v1h-1.381Z" transform="translate(24.508 -101.727)" fill="#fff"/>
        <path id="Path_263" data-name="Path 263" d="M189.118,107.573a1.361,1.361,0,0,1-.4.5,1.779,1.779,0,0,1-.608.3,2.714,2.714,0,0,1-.75.1,3.428,3.428,0,0,1-1.126-.195,3.606,3.606,0,0,1-1.057-.573l.526-.8a3.373,3.373,0,0,0,.854.472,2.358,2.358,0,0,0,.832.162.994.994,0,0,0,.59-.152.471.471,0,0,0,.208-.4v-.021a.38.38,0,0,0-.092-.252.852.852,0,0,0-.254-.19,2.106,2.106,0,0,0-.37-.146l-.433-.131q-.285-.088-.57-.2a1.97,1.97,0,0,1-.516-.277,1.389,1.389,0,0,1-.375-.418,1.2,1.2,0,0,1-.147-.619v-.02a1.459,1.459,0,0,1,.531-1.15,1.771,1.771,0,0,1,.585-.311,2.33,2.33,0,0,1,.716-.108,3.294,3.294,0,0,1,.985.157,3.547,3.547,0,0,1,.906.428l-.467.839a3.947,3.947,0,0,0-.75-.356,2.135,2.135,0,0,0-.7-.131.845.845,0,0,0-.531.146.445.445,0,0,0-.192.37v.018a.334.334,0,0,0,.1.239.97.97,0,0,0,.257.185,2.678,2.678,0,0,0,.372.156c.139.049.283.1.433.141.188.059.377.128.565.2a2.473,2.473,0,0,1,.513.288,1.414,1.414,0,0,1,.374.415,1.125,1.125,0,0,1,.146.593v.02A1.6,1.6,0,0,1,189.118,107.573Z" transform="translate(25.966 -101.211)" fill="#fff"/>
      </g>
    </g>
  </g>
</svg>
