<?xml version="1.0" encoding="UTF-8"?>
<svg id="Layer_1" data-name="Layer 1" xmlns="http://www.w3.org/2000/svg" viewBox="0 0 314.98 148.49">
  <defs>
    <style>
      .cls-1 {
        fill: #fff;
      }

      .cls-2 {
        fill: #da2128;
      }
    </style>
  </defs>
  <rect class="cls-2" width="314.98" height="148.49" rx="18" ry="18"/>
  <g>
    <path class="cls-1" d="m25.01,45.85v-17.4h7.35c.17,0,.4,0,.68.02.29.01.54.04.77.08,1.04.16,1.89.5,2.56,1.03s1.15,1.18,1.47,1.98c.31.79.47,1.68.47,2.65,0,1.46-.36,2.7-1.09,3.74-.72,1.04-1.86,1.67-3.41,1.92l-1.45.1h-4.06v5.9h-3.29Zm3.29-8.97h3.92c.17,0,.35,0,.56-.02.2-.02.39-.05.56-.1.44-.12.79-.32,1.03-.61.24-.29.41-.6.5-.95.09-.35.14-.68.14-1s-.05-.65-.14-1c-.09-.35-.26-.67-.5-.95s-.58-.49-1.03-.61c-.17-.05-.35-.08-.56-.1-.2-.02-.39-.02-.56-.02h-3.92v5.36Zm6.52,8.97l-3.43-7.08,3.38-.65,3.77,7.73h-3.72Z"/>
    <path class="cls-1" d="m47.27,46.21c-1.34,0-2.52-.29-3.53-.86-1.02-.58-1.82-1.37-2.39-2.38-.58-1.01-.86-2.17-.86-3.47,0-1.43.28-2.67.85-3.72.56-1.06,1.34-1.87,2.33-2.46.99-.58,2.13-.88,3.42-.88,1.37,0,2.53.32,3.49.97s1.67,1.55,2.13,2.72c.46,1.17.62,2.54.48,4.12h-3.25v-1.21c0-1.33-.21-2.29-.63-2.87-.42-.58-1.11-.88-2.07-.88-1.12,0-1.94.34-2.47,1.02-.53.68-.79,1.69-.79,3.01,0,1.22.26,2.16.79,2.82s1.3,1,2.33,1c.64,0,1.2-.14,1.66-.42.46-.28.81-.69,1.05-1.22l3.29.94c-.49,1.19-1.27,2.12-2.33,2.78-1.06.66-2.22.99-3.47.99Zm-4.33-5.97v-2.44h8.65v2.44h-8.65Z"/>
    <path class="cls-1" d="m61.19,46.21c-1.2,0-2.25-.3-3.15-.91-.9-.6-1.6-1.43-2.11-2.46s-.75-2.21-.75-3.52.26-2.51.77-3.55c.51-1.04,1.23-1.85,2.16-2.45s2.01-.89,3.26-.89,2.28.3,3.13.91c.85.6,1.49,1.43,1.92,2.46.44,1.04.65,2.21.65,3.52s-.22,2.48-.66,3.52c-.44,1.04-1.09,1.86-1.96,2.46-.87.6-1.95.91-3.25.91Zm.29,5.8c-.74,0-1.45-.12-2.11-.36s-1.27-.57-1.79-.99c-.53-.42-.96-.92-1.29-1.48l3.04-1.47c.21.39.51.68.9.88.39.2.82.3,1.27.3.49,0,.95-.08,1.39-.25.44-.17.78-.41,1.05-.74.26-.33.38-.73.37-1.21v-3.79h.41v-10.1h2.88v13.94c0,.32-.01.63-.04.91-.03.29-.08.57-.15.85-.21.8-.6,1.45-1.17,1.97-.57.52-1.26.9-2.08,1.15-.82.25-1.71.38-2.67.38Zm.24-8.72c.73,0,1.32-.17,1.76-.5.44-.33.76-.79.95-1.39s.29-1.29.29-2.08-.1-1.48-.29-2.08c-.19-.6-.5-1.06-.92-1.39-.42-.33-.98-.5-1.66-.5-.73,0-1.33.18-1.81.54s-.82.84-1.05,1.44-.34,1.26-.34,1.99.11,1.4.33,2c.22.6.55,1.08,1,1.43s1.03.53,1.74.53Z"/>
    <path class="cls-1" d="m71.22,30.99v-2.9h3.29v2.9h-3.29Zm0,14.86v-13.05h3.29v13.05h-3.29Z"/>
    <path class="cls-1" d="m83.23,46.21c-1.64,0-2.97-.37-3.98-1.12-1.01-.74-1.62-1.8-1.84-3.16l3.36-.51c.14.61.44,1.09.91,1.44s1.07.52,1.79.52c.6,0,1.06-.11,1.38-.34.32-.23.48-.55.48-.96,0-.26-.06-.46-.19-.62-.13-.16-.42-.31-.86-.47-.45-.15-1.14-.35-2.08-.6-1.06-.27-1.91-.58-2.55-.92-.64-.34-1.1-.74-1.38-1.21-.28-.47-.42-1.04-.42-1.71,0-.84.21-1.56.64-2.18.43-.62,1.03-1.09,1.81-1.43.78-.33,1.69-.5,2.75-.5s1.93.16,2.72.47c.79.31,1.43.76,1.92,1.34s.79,1.26.9,2.05l-3.36.6c-.06-.48-.27-.87-.63-1.15-.36-.28-.85-.45-1.47-.5-.6-.04-1.09.04-1.46.24-.37.2-.55.49-.55.87,0,.23.08.42.24.57.16.15.48.31.98.47.5.16,1.25.37,2.27.63.99.26,1.79.56,2.39.9s1.04.75,1.31,1.23c.27.48.41,1.06.41,1.73,0,1.34-.48,2.39-1.45,3.15-.97.77-2.3,1.15-4.01,1.15Z"/>
    <path class="cls-1" d="m89.9,35.34v-2.54h9.28v2.54h-9.28Zm9.28,10.51c-.9.17-1.79.24-2.65.22-.87-.02-1.64-.17-2.32-.46-.68-.29-1.2-.75-1.55-1.38-.32-.6-.49-1.2-.51-1.82-.02-.62-.02-1.31-.02-2.1v-11.14h3.29v10.95c0,.51,0,.96.02,1.37s.09.73.25.97c.29.46.75.71,1.39.75.64.04,1.34,0,2.11-.1v2.73Z"/>
    <path class="cls-1" d="m102.08,45.85v-13.05h2.9v3.19l-.31-.41c.17-.45.39-.86.68-1.23.28-.37.63-.68,1.04-.92.31-.19.66-.34,1.03-.45.37-.11.75-.18,1.15-.21s.79-.02,1.18.03v3.07c-.36-.11-.78-.15-1.26-.11-.48.04-.91.15-1.3.33-.39.18-.71.41-.98.71-.27.29-.47.64-.6,1.04-.14.4-.21.85-.21,1.35v6.67h-3.31Z"/>
    <path class="cls-1" d="m115.42,46.21c-.93,0-1.73-.18-2.37-.54-.65-.36-1.14-.84-1.47-1.44-.33-.6-.5-1.26-.5-1.99,0-.6.09-1.16.28-1.66.19-.5.48-.94.9-1.32.42-.38.97-.7,1.67-.96.48-.18,1.06-.33,1.73-.47.67-.14,1.43-.27,2.27-.39.85-.12,1.78-.26,2.79-.42l-1.18.65c0-.77-.19-1.34-.56-1.7s-.99-.54-1.86-.54c-.48,0-.99.12-1.51.35-.52.23-.89.65-1.1,1.24l-2.97-.94c.33-1.08.95-1.96,1.86-2.63.91-.68,2.15-1.02,3.72-1.02,1.15,0,2.18.18,3.07.53s1.57.97,2.03,1.84c.26.48.41.97.46,1.45s.07,1.02.07,1.62v7.97h-2.88v-2.68l.41.56c-.64.88-1.32,1.51-2.06,1.9-.74.39-1.67.59-2.8.59Zm.7-2.59c.6,0,1.11-.11,1.53-.32.41-.21.74-.46.99-.73.25-.27.41-.5.5-.69.17-.35.27-.77.3-1.24s.04-.86.04-1.18l.97.24c-.97.16-1.76.3-2.37.4-.6.11-1.09.21-1.46.3-.37.09-.7.19-.98.29-.32.13-.58.27-.78.42-.2.15-.34.31-.43.49-.09.18-.14.37-.14.59,0,.3.07.55.22.77.15.21.36.38.63.49.27.11.6.17.98.17Z"/>
    <path class="cls-1" d="m124.43,35.34v-2.54h9.28v2.54h-9.28Zm9.28,10.51c-.9.17-1.79.24-2.65.22-.87-.02-1.64-.17-2.32-.46-.68-.29-1.2-.75-1.55-1.38-.32-.6-.49-1.2-.51-1.82-.02-.62-.02-1.31-.02-2.1v-11.14h3.29v10.95c0,.51,0,.96.02,1.37s.09.73.25.97c.29.46.75.71,1.39.75.64.04,1.34,0,2.11-.1v2.73Z"/>
    <path class="cls-1" d="m136.85,30.99v-2.9h3.29v2.9h-3.29Zm0,14.86v-13.05h3.29v13.05h-3.29Z"/>
    <path class="cls-1" d="m149.64,46.21c-1.31,0-2.46-.29-3.46-.88-.99-.59-1.76-1.4-2.31-2.43s-.83-2.23-.83-3.57.28-2.56.85-3.59c.56-1.04,1.34-1.84,2.33-2.42s2.13-.87,3.42-.87,2.47.29,3.46.88c1,.59,1.77,1.4,2.33,2.43s.83,2.23.83,3.57-.28,2.55-.84,3.58c-.56,1.04-1.34,1.84-2.33,2.43-1,.58-2.15.88-3.45.88Zm0-3.07c1.06,0,1.84-.36,2.36-1.07.52-.71.78-1.63.78-2.75s-.26-2.09-.79-2.78c-.53-.69-1.31-1.04-2.35-1.04-.72,0-1.31.16-1.76.48s-.8.77-1.02,1.34c-.22.57-.33,1.24-.33,1.99,0,1.17.26,2.1.79,2.79.53.69,1.3,1.03,2.33,1.03Z"/>
    <path class="cls-1" d="m158.89,45.85v-13.05h2.92v4.33h.41v8.72h-3.33Zm8.92,0v-6.16c0-.3-.02-.68-.05-1.14-.03-.46-.13-.93-.3-1.4-.17-.47-.44-.86-.83-1.17-.38-.31-.92-.47-1.62-.47-.28,0-.58.04-.91.13-.32.09-.62.26-.91.51-.28.25-.51.63-.69,1.12-.18.49-.27,1.14-.27,1.96l-1.89-.89c0-1.03.21-2,.63-2.9.42-.9,1.05-1.63,1.89-2.19.84-.56,1.9-.83,3.18-.83,1.02,0,1.86.17,2.5.52.64.35,1.15.79,1.5,1.32s.61,1.09.77,1.66c.15.58.25,1.1.28,1.58.03.48.05.82.05,1.04v7.32h-3.33Z"/>
    <path class="cls-1" d="m179.12,45.85v-17.4h10.63v3.29h-7.35v3.77h5.9v3.29h-5.9v7.06h-3.29Z"/>
    <path class="cls-1" d="m197.63,46.21c-1.34,0-2.52-.29-3.53-.86-1.02-.58-1.82-1.37-2.39-2.38-.58-1.01-.86-2.17-.86-3.47,0-1.43.28-2.67.85-3.72.56-1.06,1.34-1.87,2.33-2.46.99-.58,2.13-.88,3.42-.88,1.37,0,2.53.32,3.49.97s1.67,1.55,2.13,2.72c.46,1.17.62,2.54.48,4.12h-3.25v-1.21c0-1.33-.21-2.29-.63-2.87-.42-.58-1.11-.88-2.07-.88-1.12,0-1.94.34-2.47,1.02-.53.68-.79,1.69-.79,3.01,0,1.22.26,2.16.79,2.82s1.3,1,2.33,1c.64,0,1.2-.14,1.66-.42.46-.28.81-.69,1.05-1.22l3.29.94c-.49,1.19-1.27,2.12-2.33,2.78-1.06.66-2.22.99-3.47.99Zm-4.33-5.97v-2.44h8.65v2.44h-8.65Z"/>
    <path class="cls-1" d="m212.32,46.21c-1.34,0-2.52-.29-3.53-.86-1.02-.58-1.82-1.37-2.39-2.38-.58-1.01-.86-2.17-.86-3.47,0-1.43.28-2.67.85-3.72.56-1.06,1.34-1.87,2.33-2.46.99-.58,2.13-.88,3.42-.88,1.37,0,2.53.32,3.49.97s1.67,1.55,2.13,2.72c.46,1.17.62,2.54.48,4.12h-3.25v-1.21c0-1.33-.21-2.29-.63-2.87-.42-.58-1.11-.88-2.07-.88-1.12,0-1.94.34-2.47,1.02-.53.68-.79,1.69-.79,3.01,0,1.22.26,2.16.79,2.82s1.3,1,2.33,1c.64,0,1.2-.14,1.66-.42.46-.28.81-.69,1.05-1.22l3.29.94c-.49,1.19-1.27,2.12-2.33,2.78-1.06.66-2.22.99-3.47.99Zm-4.33-5.97v-2.44h8.65v2.44h-8.65Z"/>
  </g>
  <g>
    <path class="cls-1" d="m50.9,119.59v-9.44l24.17-21.45c1.81-1.6,3.09-3.11,3.84-4.52.75-1.41,1.12-2.73,1.12-3.96,0-1.76-.36-3.33-1.08-4.7s-1.73-2.45-3.04-3.24c-1.31-.79-2.84-1.18-4.6-1.18s-3.46.42-4.86,1.26c-1.4.84-2.49,1.95-3.26,3.32-.77,1.37-1.13,2.86-1.08,4.46h-11.21c0-3.95.87-7.36,2.6-10.24,1.73-2.88,4.15-5.11,7.24-6.68,3.09-1.57,6.7-2.36,10.81-2.36,3.76,0,7.13.82,10.1,2.46,2.97,1.64,5.32,3.93,7.02,6.86,1.71,2.94,2.56,6.34,2.56,10.2,0,2.86-.4,5.22-1.2,7.1-.8,1.88-1.99,3.62-3.56,5.2-1.57,1.59-3.51,3.38-5.8,5.38l-15.61,13.69-.88-2.4h27.05v10.24h-40.34Z"/>
    <path class="cls-1" d="m114.77,120.87c-2.91,0-5.64-.6-8.18-1.8-2.55-1.2-4.74-2.87-6.58-5-1.84-2.13-3.16-4.62-3.96-7.44l10.48-2.8c.35,1.36.97,2.53,1.86,3.52.89.99,1.93,1.75,3.12,2.3s2.41.82,3.66.82c1.65,0,3.17-.4,4.54-1.2,1.37-.8,2.47-1.88,3.28-3.24.81-1.36,1.22-2.87,1.22-4.52s-.41-3.16-1.22-4.52c-.81-1.36-1.91-2.44-3.28-3.24-1.37-.8-2.89-1.2-4.54-1.2-2.03,0-3.68.34-4.96,1.02-1.28.68-2.24,1.33-2.88,1.94l-9.2-2.8,1.76-30.65h31.45v10.16h-25.45l3.84-3.6-1.2,19.77-1.84-2.24c1.44-1.17,3.08-2.03,4.92-2.56,1.84-.53,3.56-.8,5.16-.8,3.63,0,6.82.81,9.58,2.42,2.76,1.61,4.92,3.83,6.48,6.64,1.56,2.82,2.34,6.04,2.34,9.66s-.95,6.9-2.84,9.82c-1.89,2.92-4.39,5.24-7.48,6.96-3.1,1.72-6.46,2.58-10.08,2.58Z"/>
    <path class="cls-1" d="m162.95,120.87c-4.27,0-8-.89-11.21-2.68-3.2-1.79-5.7-4.28-7.48-7.48-1.79-3.2-2.68-6.94-2.68-11.21v-17.29c0-4.27.89-8,2.68-11.21,1.79-3.2,4.28-5.7,7.48-7.48,3.2-1.79,6.94-2.68,11.21-2.68s8,.89,11.21,2.68c3.2,1.79,5.7,4.28,7.48,7.48,1.79,3.2,2.68,6.94,2.68,11.21v17.29c0,4.27-.89,8-2.68,11.21-1.79,3.2-4.28,5.7-7.48,7.48-3.2,1.79-6.94,2.68-11.21,2.68Zm0-10.32c1.92,0,3.65-.45,5.2-1.36,1.55-.91,2.77-2.13,3.68-3.68.91-1.55,1.36-3.28,1.36-5.2v-18.97c0-1.92-.45-3.65-1.36-5.2-.91-1.55-2.13-2.77-3.68-3.68-1.55-.91-3.28-1.36-5.2-1.36s-3.66.45-5.2,1.36c-1.55.91-2.77,2.13-3.68,3.68-.91,1.55-1.36,3.28-1.36,5.2v18.97c0,1.92.45,3.66,1.36,5.2.91,1.55,2.13,2.77,3.68,3.68,1.55.91,3.28,1.36,5.2,1.36Z"/>
  </g>
  <path class="cls-1" d="m25.79,94.34h5.91c.25,0,.58,0,.99.03.42.02.79.06,1.12.11,1.51.23,2.75.73,3.72,1.5.97.76,1.68,1.72,2.14,2.88.46,1.15.69,2.44.69,3.86,0,2.12-.5,3.9-1.5,5.34-1,1.44-2.53,2.37-4.59,2.81-.5.11-.93.17-1.27.19-.34.02-.77.04-1.3.04h-5.91v-4.47h5.7c.25,0,.52-.01.81-.04.29-.02.56-.07.81-.14.64-.19,1.14-.49,1.5-.9.35-.41.59-.87.73-1.38.13-.51.2-.99.2-1.45s-.07-.94-.2-1.45c-.14-.51-.38-.97-.73-1.39-.35-.42-.85-.71-1.5-.89-.25-.07-.52-.12-.81-.14-.29-.02-.56-.04-.81-.04h-5.7v-4.47Zm0,16.74l5.28-1.09,10.87,9.67h-6.65l-9.5-8.58Zm.14-6.6v-3.55h17.59v3.55h-17.59Zm5.14-6.6v-3.55h12.31v3.55h-12.31Z"/>
  <g>
    <path class="cls-1" d="m246.26,115.96c-1.74,0-3.24-.38-4.5-1.14-1.26-.76-2.23-1.82-2.91-3.18-.68-1.36-1.02-2.94-1.02-4.75s.34-3.39,1.02-4.75c.68-1.36,1.65-2.42,2.91-3.18s2.76-1.14,4.5-1.14,3.24.38,4.5,1.14,2.23,1.82,2.91,3.18c.68,1.36,1.02,2.94,1.02,4.75s-.34,3.39-1.02,4.75c-.68,1.36-1.65,2.42-2.91,3.18-1.26.76-2.76,1.14-4.5,1.14Zm0-3.09c1.1.02,2.02-.22,2.75-.71s1.28-1.19,1.65-2.09c.37-.9.55-1.96.55-3.17s-.18-2.26-.55-3.14c-.37-.89-.92-1.58-1.65-2.07s-1.65-.75-2.75-.76c-1.1-.02-2.02.22-2.75.71-.73.49-1.28,1.19-1.65,2.09-.37.9-.55,1.96-.55,3.17s.18,2.25.55,3.14c.37.89.92,1.57,1.65,2.07s1.65.75,2.75.76Z"/>
    <path class="cls-1" d="m257.08,115.6v-13.05h2.92v4.33h.41v8.72h-3.33Zm8.92,0v-6.16c0-.3-.02-.68-.05-1.14-.03-.46-.13-.93-.3-1.4-.17-.47-.45-.86-.83-1.17-.38-.31-.92-.47-1.62-.47-.28,0-.58.04-.91.13s-.62.26-.91.51c-.28.25-.51.63-.69,1.12-.18.49-.27,1.14-.27,1.96l-1.89-.89c0-1.03.21-2,.63-2.9s1.05-1.63,1.89-2.19,1.9-.83,3.18-.83c1.02,0,1.86.17,2.5.52.64.35,1.15.79,1.5,1.32.36.53.61,1.09.77,1.66.15.58.25,1.1.28,1.58s.05.82.05,1.04v7.32h-3.33Z"/>
    <path class="cls-1" d="m272.72,115.6v-17.76h3.29v17.76h-3.29Z"/>
    <path class="cls-1" d="m281.3,121.4l2.51-6.91.05,2.03-5.68-13.97h3.41l3.82,9.88h-.77l3.79-9.88h3.29l-7.37,18.85h-3.04Z"/>
  </g>
  <g>
    <path class="cls-1" d="m203.3,82.22h6.31l-8.9,33.38h-6.3l8.9-33.38Z"/>
    <path class="cls-1" d="m215.17,103.41v-4.87h13.91v4.87h-13.91Z"/>
  </g>
</svg>