<svg xmlns="http://www.w3.org/2000/svg" width="26" height="42" viewBox="0 0 26 42">
  <path id="smartphone_FILL0_wght300_GRAD0_opsz48" d="M13.9,45A2.9,2.9,0,0,1,11,42.1V5.9a2.794,2.794,0,0,1,.85-2.05A2.794,2.794,0,0,1,13.9,3H34.1a2.794,2.794,0,0,1,2.05.85A2.794,2.794,0,0,1,37,5.9V42.1A2.9,2.9,0,0,1,34.1,45Zm-.65-4.4v1.5a.686.686,0,0,0,.65.65H34.1a.686.686,0,0,0,.65-.65V40.6Zm0-2.25h21.5V9.65H13.25Zm0-30.95h21.5V5.9a.686.686,0,0,0-.65-.65H13.9a.686.686,0,0,0-.65.65Zm0,0v0Zm0,33.2v0Z" transform="translate(-11 -3)" fill="#da2128"/>
</svg>
