<svg id="Group_131" data-name="Group 131" xmlns="http://www.w3.org/2000/svg" xmlns:xlink="http://www.w3.org/1999/xlink" width="54.073" height="54.656" viewBox="0 0 54.073 54.656">
  <defs>
    <clipPath id="clip-path">
      <path id="Path_215" data-name="Path 215" d="M39.971,56.09c0,7.238,4.361,13.275,4.361,13.275L41.6,77.512l8.414-2.746a24.459,24.459,0,0,0,12.333,3.7A22.378,22.378,0,1,0,39.971,56.09" transform="translate(-39.971 -33.712)" fill="none"/>
    </clipPath>
    <linearGradient id="linear-gradient" x1="-0.113" y1="1.126" x2="-0.11" y2="1.126" gradientUnits="objectBoundingBox">
      <stop offset="0" stop-color="#5ba324"/>
      <stop offset="0.5" stop-color="#2f8728"/>
      <stop offset="1" stop-color="#5ba324"/>
    </linearGradient>
    <clipPath id="clip-path-2">
      <rect id="Rectangle_195" data-name="Rectangle 195" width="54.073" height="54.656" fill="none"/>
    </clipPath>
  </defs>
  <g id="Group_128" data-name="Group 128" transform="translate(5.054 4.263)">
    <g id="Group_127" data-name="Group 127" clip-path="url(#clip-path)">
      <rect id="Rectangle_194" data-name="Rectangle 194" width="44.756" height="44.756" transform="translate(0 0)" fill="url(#linear-gradient)"/>
    </g>
  </g>
  <g id="Group_130" data-name="Group 130">
    <g id="Group_129" data-name="Group 129" clip-path="url(#clip-path-2)">
      <path id="Path_216" data-name="Path 216" d="M27.432,0A26.641,26.641,0,0,0,.792,26.641,30.725,30.725,0,0,0,4.657,40.47L0,54.656l14.6-4.665a27.006,27.006,0,0,0,12.835,3.29A26.641,26.641,0,1,0,27.432,0m0,49.019a24.459,24.459,0,0,1-12.333-3.7L6.685,48.062l2.73-8.146S5.054,33.879,5.054,26.641A22.378,22.378,0,1,1,27.432,49.019" fill="#fff"/>
      <path id="Path_217" data-name="Path 217" d="M118.662,115.817a3.125,3.125,0,0,1,1.1-.456h2.1a1.193,1.193,0,0,1,.821.684c.259.586,2.028,4.744,2.16,5.065a1.753,1.753,0,0,1-.076,1.825c-.551.711-1.7,2.038-1.7,2.038a.821.821,0,0,0-.061,1.065,21.3,21.3,0,0,0,3.6,4.441,17.171,17.171,0,0,0,5.156,3.194c1.11.365,1.354-.122,1.779-.669s1.749-2.22,1.749-2.22a1.047,1.047,0,0,1,1.354-.259c.9.411,5.262,2.525,5.262,2.525a.709.709,0,0,1,.563.684,4.772,4.772,0,0,1-1.186,4.076,7.964,7.964,0,0,1-6.539,2.053c-1.593-.445-6.86-1.823-10.295-5.027s-6.217-6.575-7.355-9.062a8.771,8.771,0,0,1-1.012-4.657c.063-.7.429-3.918,2.585-5.3" transform="translate(-101.374 -100.775)" fill="#fff"/>
    </g>
  </g>
</svg>
