<svg xmlns="http://www.w3.org/2000/svg" xmlns:xlink="http://www.w3.org/1999/xlink" width="412.354" height="160.03" viewBox="0 0 412.354 160.03">
  <defs>
    <clipPath id="clip-path">
      <rect id="Rectangle_378" data-name="Rectangle 378" width="412.354" height="160.029" fill="none"/>
    </clipPath>
  </defs>
  <g id="Group_168" data-name="Group 168" transform="translate(0 0)">
    <g id="Group_167" data-name="Group 167" transform="translate(0 0)" clip-path="url(#clip-path)">
      <path id="Path_267" data-name="Path 267" d="M113.4,106.735c-.582-1.086-3.152-7.579-3.152-7.579L74.315,1.919,54.443,54.638C40.637,50.208,22.6,47.506,0,50A122.078,122.078,0,0,1,52.156,60.7L38.042,98.15s-2.263,6.914-3.543,9.139a12.431,12.431,0,0,1-7.159,5.92h18.6v-1.274s-6.518.819-4.063-7.639l15.132-41.19c16.98,9,33.435,24.085,42.4,49.375H97.947v1.363h22.647V112.21a10.259,10.259,0,0,1-7.2-5.475M59.477,56.395,71.345,24.081,89.573,75.21s-9.611-11.077-30.1-18.815" transform="translate(0 3.252)" fill="#fff"/>
      <path id="Path_268" data-name="Path 268" d="M108.283,112.208v1.635h22.644V112.48h-1.46c8.964-25.29,25.419-40.379,42.4-49.372L187,104.294c2.455,8.458-4.063,7.641-4.063,7.641v1.272h18.6a12.431,12.431,0,0,1-7.159-5.92c-1.28-2.226-3.543-9.139-3.543-9.139L176.721,60.7A122.078,122.078,0,0,1,228.877,50c-22.6-2.492-40.64.21-54.443,4.64L154.562,1.92l-35.93,97.233s-2.57,6.494-3.152,7.579a10.259,10.259,0,0,1-7.2,5.475m31.021-37h0l18.225-51.129L169.4,56.393c-20.486,7.738-30.1,18.815-30.1,18.815" transform="translate(183.477 3.254)" fill="#fff"/>
      <path id="Path_269" data-name="Path 269" d="M72,46.475c5.674,3.88,13.37,3.384,22.655,4.958,11.325,1.921,21.612,4.925,22.242,11.675.156,1.665,1.468,5.758-5.955,12-6.545,5.5-19.225,15.067-53.5,24.638a28.733,28.733,0,0,0-3.734,1.089c-1.024.531-2.059,1.617-1.277,3.8l.183,1.592h-2L44.066,89.087l1.865-.366a6.172,6.172,0,0,0,5.939,4.422,25.539,25.539,0,0,0,3.743-.625C62.348,90.914,83.989,85.293,100,75.9c10.845-6.364,1.676-12.074-4.8-14.752a52.526,52.526,0,0,0-8.875-2.492c-8.469-1.706-27.957-6.72-26.527-16.625C61.644,29.282,73.1,21.842,97.45,11.418l.819-.364-.181-4.64h1.455l8.094,14.733-1.183,1.183A9.359,9.359,0,0,0,99.7,19.39S58.338,37.13,72,46.475" transform="translate(74.666 10.869)" fill="#fff"/>
      <path id="Path_270" data-name="Path 270" d="M126.265,46.475c-5.674,3.88-13.37,3.384-22.655,4.958C92.286,53.353,82,56.358,81.368,63.107c-.156,1.665-1.468,5.758,5.955,12,6.545,5.5,19.225,15.067,53.5,24.638a28.734,28.734,0,0,1,3.734,1.089c1.024.531,2.059,1.617,1.277,3.8l-.183,1.592h2L154.2,89.087l-1.865-.366a6.172,6.172,0,0,1-5.938,4.422,25.538,25.538,0,0,1-3.743-.625c-6.736-1.6-28.378-7.224-44.388-16.619-10.845-6.364-1.676-12.074,4.8-14.752a52.525,52.525,0,0,1,8.875-2.492c8.469-1.706,27.957-6.72,26.527-16.625-1.846-12.747-13.3-20.187-37.652-30.611L100,11.054l.181-4.64H98.723L90.629,21.147l1.183,1.183a9.359,9.359,0,0,1,6.758-2.94s41.359,17.74,27.7,27.084" transform="translate(137.556 10.869)" fill="#fff"/>
      <path id="Path_271" data-name="Path 271" d="M283.284.064c-3.557,6-6.679,5.109-6.679,5.109H36.941s-3.123.892-6.679-5.109c0,0-2.667-.962-.593,4.594l5.556,14.078,1.261-.816.455-2.455H151.626v94.779s-2.35,3.767-5.941,4.907h-.763V117.1h23.7v-1.948H167.1s-3.842-2.234-5.184-4.907V15.465H276.6l.455,2.455,1.261.816,5.556-14.078c2.075-5.556-.593-4.594-.593-4.594" transform="translate(48.933 0.001)" fill="#fff"/>
      <rect id="Rectangle_376" data-name="Rectangle 376" width="359.33" height="25.101" transform="translate(26.039 134.928)" fill="#dc0626"/>
      <path id="Path_272" data-name="Path 272" d="M23.766,63.626H21.737L20.63,60.991H15.462l-1.124,2.635h-1.97l4.81-11.007H18.96Zm-5.728-8.708-1.873,4.37h3.761Z" transform="translate(20.958 89.159)" fill="#fff"/>
      <path id="Path_273" data-name="Path 273" d="M24.767,52.649h1.9V63.577H25.066L19.055,55.8v7.773h-1.9V52.649h1.776l5.841,7.558Z" transform="translate(29.059 89.209)" fill="#fff"/>
      <path id="Path_274" data-name="Path 274" d="M32.631,63.626H30.6L29.5,60.991H24.327L23.2,63.626h-1.97l4.81-11.007h1.781ZM26.9,54.917l-1.873,4.37h3.761Z" transform="translate(35.979 89.159)" fill="#fff"/>
      <path id="Path_275" data-name="Path 275" d="M26.015,52.649h1.9v9.2h5.744v1.733H26.015Z" transform="translate(44.08 89.209)" fill="#fff"/>
      <path id="Path_276" data-name="Path 276" d="M40.051,60.4A5.488,5.488,0,0,1,38.865,62.2a5.7,5.7,0,0,1-4.12,1.676,5.8,5.8,0,0,1-2.312-.445,5.466,5.466,0,0,1-1.8-1.207,5.526,5.526,0,0,1-1.169-1.8,5.855,5.855,0,0,1,0-4.37,5.477,5.477,0,0,1,1.186-1.8,5.691,5.691,0,0,1,4.122-1.679,5.855,5.855,0,0,1,2.312.445,5.418,5.418,0,0,1,2.964,3,5.855,5.855,0,0,1,0,4.37m-1.865-3.659a3.8,3.8,0,0,0-.765-1.242,3.623,3.623,0,0,0-1.18-.841,3.647,3.647,0,0,0-4.152.816,3.808,3.808,0,0,0-.757,1.234,4.265,4.265,0,0,0,0,3.012,3.746,3.746,0,0,0,.765,1.242,3.659,3.659,0,0,0,1.18.843,3.544,3.544,0,0,0,1.5.313,3.611,3.611,0,0,0,1.49-.3,3.52,3.52,0,0,0,1.164-.827,3.78,3.78,0,0,0,.757-1.234,4.265,4.265,0,0,0,0-3.012" transform="translate(49.213 89.092)" fill="#fff"/>
      <path id="Path_277" data-name="Path 277" d="M43.153,62.837a6.684,6.684,0,0,1-2.288.913,6.865,6.865,0,0,1-1.371.132,6.083,6.083,0,0,1-2.328-.428,5.2,5.2,0,0,1-2.937-2.975,6.057,6.057,0,0,1-.4-2.231,5.839,5.839,0,0,1,.412-2.188,5.506,5.506,0,0,1,1.164-1.8,5.588,5.588,0,0,1,4.06-1.679,7.938,7.938,0,0,1,1.3.1,6.29,6.29,0,0,1,1.089.291,5.559,5.559,0,0,1,.943.461,6.921,6.921,0,0,1,.865.631l-1.218,1.452a7.087,7.087,0,0,0-.639-.482,4.008,4.008,0,0,0-.687-.366,4.107,4.107,0,0,0-.789-.234,4.643,4.643,0,0,0-.943-.086,3.254,3.254,0,0,0-1.4.3,3.58,3.58,0,0,0-1.124.835,4.02,4.02,0,0,0-.749,1.237,4.1,4.1,0,0,0-.275,1.5,4.458,4.458,0,0,0,.267,1.563,3.619,3.619,0,0,0,.757,1.245,3.505,3.505,0,0,0,1.172.822,3.779,3.779,0,0,0,1.522.3,4.515,4.515,0,0,0,1.458-.229,4.154,4.154,0,0,0,1.18-.6V59.261H39.4V57.591H44.05v4.591a8.107,8.107,0,0,1-.9.655" transform="translate(57.314 89.092)" fill="#fff"/>
      <path id="Path_278" data-name="Path 278" d="M42.165,56.164a1.128,1.128,0,0,0,.4.439,3.333,3.333,0,0,0,.8.375c.34.116.768.234,1.293.358a12.452,12.452,0,0,1,1.522.482,3.909,3.909,0,0,1,1.1.649,2.541,2.541,0,0,1,.666.892,2.9,2.9,0,0,1,.226,1.194,3.247,3.247,0,0,1-.286,1.39,2.954,2.954,0,0,1-.8,1.027,3.534,3.534,0,0,1-1.229.644,5.47,5.47,0,0,1-1.574.218,6.9,6.9,0,0,1-2.42-.431,6.55,6.55,0,0,1-2.139-1.32l1.153-1.371a6.814,6.814,0,0,0,1.609,1.051,4.422,4.422,0,0,0,1.843.369,2.371,2.371,0,0,0,1.412-.377,1.176,1.176,0,0,0,.523-1.013,1.287,1.287,0,0,0-.1-.531,1.034,1.034,0,0,0-.372-.428,3.175,3.175,0,0,0-.754-.366,12.456,12.456,0,0,0-1.245-.361,13.182,13.182,0,0,1-1.557-.453,3.884,3.884,0,0,1-1.14-.622,2.477,2.477,0,0,1-.706-.905,3.122,3.122,0,0,1-.242-1.3,2.989,2.989,0,0,1,.278-1.3,3.134,3.134,0,0,1,.768-1.008,3.385,3.385,0,0,1,1.172-.647,4.7,4.7,0,0,1,1.5-.226,6.263,6.263,0,0,1,2.164.35,6.445,6.445,0,0,1,1.8,1.024L46.8,55.417a6.6,6.6,0,0,0-1.485-.838,4.051,4.051,0,0,0-1.485-.288,2.027,2.027,0,0,0-1.309.383,1.16,1.16,0,0,0-.469.93,1.316,1.316,0,0,0,.11.56" transform="translate(67.317 89.112)" fill="#fff"/>
      <path id="Path_279" data-name="Path 279" d="M49.569,61.753a4.083,4.083,0,0,1-1.98.428,4.249,4.249,0,0,1-1.7-.334,4.193,4.193,0,0,1-2.253-2.279,4.262,4.262,0,0,1-.323-1.662,4.356,4.356,0,0,1,1.218-3.045,4.266,4.266,0,0,1,3.074-1.28,4.306,4.306,0,0,1,1.943.391A4.562,4.562,0,0,1,50.895,55l-1.169,1.266a4.4,4.4,0,0,0-.93-.744,2.362,2.362,0,0,0-1.207-.288,2.17,2.17,0,0,0-.954.21,2.339,2.339,0,0,0-.749.571,2.718,2.718,0,0,0-.493.835,2.84,2.84,0,0,0-.178,1.024,2.934,2.934,0,0,0,.178,1.043,2.553,2.553,0,0,0,.509.846,2.412,2.412,0,0,0,.779.569,2.348,2.348,0,0,0,1,.21,2.318,2.318,0,0,0,1.177-.288,4.531,4.531,0,0,0,.962-.741l1.14,1.124a5.145,5.145,0,0,1-1.39,1.115" transform="translate(73.385 90.789)" fill="#fff"/>
      <path id="Path_280" data-name="Path 280" d="M48.547,63.87h-1.9V52.475h1.9v4.446a4.278,4.278,0,0,1,.442-.558,2.88,2.88,0,0,1,.56-.466,2.792,2.792,0,0,1,.7-.323,2.925,2.925,0,0,1,.862-.119,2.737,2.737,0,0,1,2.164.86,3.346,3.346,0,0,1,.763,2.312V63.87h-1.9V59.2a2.188,2.188,0,0,0-.455-1.487,1.625,1.625,0,0,0-1.291-.52,1.752,1.752,0,0,0-1.334.536,2.085,2.085,0,0,0-.509,1.5Z" transform="translate(79.031 88.915)" fill="#fff"/>
      <path id="Path_281" data-name="Path 281" d="M58.374,59.546a4.309,4.309,0,0,1-.919,1.366,4.407,4.407,0,0,1-1.4.93,4.712,4.712,0,0,1-3.505.008,4.251,4.251,0,0,1-2.3-2.279,4.393,4.393,0,0,1,.008-3.341,4.315,4.315,0,0,1,.919-1.374,4.419,4.419,0,0,1,3.147-1.274,4.506,4.506,0,0,1,1.757.337,4.306,4.306,0,0,1,1.39.921,4.222,4.222,0,0,1,.913,1.366,4.265,4.265,0,0,1,.326,1.671,4.185,4.185,0,0,1-.334,1.671m-1.754-2.67a2.7,2.7,0,0,0-.52-.849,2.44,2.44,0,0,0-3.608-.008,2.5,2.5,0,0,0-.5.833,2.959,2.959,0,0,0-.17,1.024,2.9,2.9,0,0,0,.183,1.037,2.593,2.593,0,0,0,.52.851,2.468,2.468,0,0,0,.792.569,2.334,2.334,0,0,0,1,.21,2.4,2.4,0,0,0,1.032-.21,2.377,2.377,0,0,0,.784-.569,2.482,2.482,0,0,0,.5-.835,2.944,2.944,0,0,0,.17-1.021,2.85,2.85,0,0,0-.183-1.032" transform="translate(84.589 90.789)" fill="#fff"/>
      <rect id="Rectangle_377" data-name="Rectangle 377" width="1.905" height="11.395" transform="translate(144.935 141.39)" fill="#fff"/>
      <path id="Path_282" data-name="Path 282" d="M60.658,61.967V60.954a3.506,3.506,0,0,1-1.075.841,3.392,3.392,0,0,1-1.592.345,3.74,3.74,0,0,1-1.124-.164,2.728,2.728,0,0,1-.93-.485A2.477,2.477,0,0,1,55.3,60.7a2.431,2.431,0,0,1-.242-1.1v-.03a2.606,2.606,0,0,1,.251-1.169,2.31,2.31,0,0,1,.7-.83,3.139,3.139,0,0,1,1.062-.493,5.265,5.265,0,0,1,1.336-.162A7.411,7.411,0,0,1,59.67,57a7.823,7.823,0,0,1,1.005.248v-.2a1.642,1.642,0,0,0-.523-1.312,2.231,2.231,0,0,0-1.506-.453,5.169,5.169,0,0,0-1.25.14,8.029,8.029,0,0,0-1.107.377l-.515-1.517a8.984,8.984,0,0,1,1.4-.5,7.014,7.014,0,0,1,1.735-.189,3.674,3.674,0,0,1,2.732.913,3.533,3.533,0,0,1,.889,2.568v4.888Zm.049-3.5a5.271,5.271,0,0,0-.849-.234,5.6,5.6,0,0,0-1.04-.092,2.433,2.433,0,0,0-1.39.342,1.126,1.126,0,0,0-.5.983V59.5a1.027,1.027,0,0,0,.461.905,1.967,1.967,0,0,0,1.129.313,2.89,2.89,0,0,0,.87-.127,2.219,2.219,0,0,0,.7-.35,1.622,1.622,0,0,0,.458-.547,1.553,1.553,0,0,0,.164-.711Z" transform="translate(93.284 90.818)" fill="#fff"/>
      <path id="Path_283" data-name="Path 283" d="M60.425,61.988h-1.9V53.746h1.9V55.6a3.615,3.615,0,0,1,1.107-1.5,2.662,2.662,0,0,1,1.811-.515v2h-.108a3.033,3.033,0,0,0-1.14.2,2.364,2.364,0,0,0-.892.609,2.719,2.719,0,0,0-.577,1.024,4.5,4.5,0,0,0-.2,1.428Z" transform="translate(99.157 90.797)" fill="#fff"/>
      <path id="Path_284" data-name="Path 284" d="M66.843,60.682a2.281,2.281,0,0,1-.649.8,2.93,2.93,0,0,1-.975.485,4.233,4.233,0,0,1-1.2.164,5.556,5.556,0,0,1-1.8-.313,5.837,5.837,0,0,1-1.695-.921l.843-1.283a5.484,5.484,0,0,0,1.366.76,3.879,3.879,0,0,0,1.336.256,1.616,1.616,0,0,0,.943-.24.76.76,0,0,0,.334-.649v-.03a.608.608,0,0,0-.145-.407,1.328,1.328,0,0,0-.407-.3,3.483,3.483,0,0,0-.593-.234l-.7-.21c-.3-.094-.606-.2-.913-.313a3.348,3.348,0,0,1-.83-.445,2.227,2.227,0,0,1-.6-.671,1.933,1.933,0,0,1-.234-.994v-.03a2.371,2.371,0,0,1,.226-1.045,2.312,2.312,0,0,1,.622-.8,2.841,2.841,0,0,1,.938-.5,3.8,3.8,0,0,1,1.148-.172,5.259,5.259,0,0,1,1.579.251,5.623,5.623,0,0,1,1.452.687l-.752,1.342a6.31,6.31,0,0,0-1.2-.569,3.39,3.39,0,0,0-1.124-.21,1.345,1.345,0,0,0-.851.234.708.708,0,0,0-.3.59v.032a.531.531,0,0,0,.156.383,1.462,1.462,0,0,0,.412.3,4.666,4.666,0,0,0,.6.251q.335.117.7.226c.3.094.6.2.905.329a3.7,3.7,0,0,1,.816.461,2.289,2.289,0,0,1,.6.663,1.817,1.817,0,0,1,.234.951v.032a2.593,2.593,0,0,1-.234,1.14" transform="translate(102.544 90.81)" fill="#fff"/>
      <path id="Path_285" data-name="Path 285" d="M65.425,63.87h-1.9V52.475h1.9v4.446a4.279,4.279,0,0,1,.442-.558,2.88,2.88,0,0,1,.56-.466,2.792,2.792,0,0,1,.7-.323,2.925,2.925,0,0,1,.862-.119,2.738,2.738,0,0,1,2.164.86,3.346,3.346,0,0,1,.763,2.312V63.87h-1.9V59.2a2.188,2.188,0,0,0-.455-1.487,1.625,1.625,0,0,0-1.291-.52,1.752,1.752,0,0,0-1.334.536,2.085,2.085,0,0,0-.509,1.5Z" transform="translate(107.629 88.915)" fill="#fff"/>
      <path id="Path_286" data-name="Path 286" d="M66.979,52.51h2.045V54.3H66.979Zm.075,3.061h1.9v8.242h-1.9Z" transform="translate(113.49 88.975)" fill="#fff"/>
      <path id="Path_287" data-name="Path 287" d="M76.685,59.7a4.067,4.067,0,0,1-.86,1.35,3.507,3.507,0,0,1-1.231.835,3.759,3.759,0,0,1-1.428.283,3.036,3.036,0,0,1-1.687-.439,4.427,4.427,0,0,1-1.11-1.013l.016,3.778h-1.9V53.756h1.9V55.13a4.166,4.166,0,0,1,1.121-1.1,2.972,2.972,0,0,1,1.665-.445,3.739,3.739,0,0,1,1.42.283,3.588,3.588,0,0,1,1.223.835,4.205,4.205,0,0,1,.862,1.35A4.773,4.773,0,0,1,77,57.876a4.88,4.88,0,0,1-.318,1.827m-1.773-2.926a2.519,2.519,0,0,0-.5-.838,2.315,2.315,0,0,0-2.584-.531,2.255,2.255,0,0,0-.768.539,2.726,2.726,0,0,0-.523.838,3.166,3.166,0,0,0,0,2.182,2.7,2.7,0,0,0,.523.838,2.211,2.211,0,0,0,.768.536,2.264,2.264,0,0,0,.919.191,2.3,2.3,0,0,0,1.665-.719,2.519,2.519,0,0,0,.5-.838,3.3,3.3,0,0,0,0-2.2" transform="translate(116.034 90.789)" fill="#fff"/>
      <path id="Path_288" data-name="Path 288" d="M79,63.577H77.066v-9.15H73.6V52.648h8.867v1.778H79Z" transform="translate(124.711 89.209)" fill="#fff"/>
      <path id="Path_289" data-name="Path 289" d="M79.291,60.1a2.34,2.34,0,0,0,1.563.539,2.752,2.752,0,0,0,1.218-.251,3.883,3.883,0,0,0,1.016-.733l1.107.983a4.549,4.549,0,0,1-1.415,1.124,4.2,4.2,0,0,1-1.956.42,4.4,4.4,0,0,1-1.662-.31A4.025,4.025,0,0,1,77.817,61a4.142,4.142,0,0,1-.9-1.353,4.521,4.521,0,0,1-.326-1.754,4.619,4.619,0,0,1,.3-1.671,4.136,4.136,0,0,1,.833-1.366A4.018,4.018,0,0,1,79,53.926a3.772,3.772,0,0,1,1.622-.345,3.9,3.9,0,0,1,1.724.361,3.537,3.537,0,0,1,1.234.967,4.236,4.236,0,0,1,.744,1.423,5.8,5.8,0,0,1,.248,1.7q0,.129-.008.251c-.005.084-.013.172-.022.267H78.482a2.478,2.478,0,0,0,.808,1.552M82.7,57.3a3.341,3.341,0,0,0-.2-.849,2.156,2.156,0,0,0-.423-.687,2.007,2.007,0,0,0-.633-.461,1.925,1.925,0,0,0-.833-.172,1.9,1.9,0,0,0-1.444.6,2.679,2.679,0,0,0-.7,1.568Z" transform="translate(129.777 90.789)" fill="#fff"/>
      <path id="Path_290" data-name="Path 290" d="M86.188,60.682a2.281,2.281,0,0,1-.649.8,2.93,2.93,0,0,1-.975.485,4.233,4.233,0,0,1-1.2.164,5.556,5.556,0,0,1-1.8-.313,5.837,5.837,0,0,1-1.695-.921l.843-1.283a5.484,5.484,0,0,0,1.366.76,3.88,3.88,0,0,0,1.336.256,1.616,1.616,0,0,0,.943-.24.76.76,0,0,0,.334-.649v-.03a.608.608,0,0,0-.145-.407,1.328,1.328,0,0,0-.407-.3,3.483,3.483,0,0,0-.593-.234l-.7-.21c-.3-.094-.606-.2-.913-.313a3.348,3.348,0,0,1-.83-.445,2.227,2.227,0,0,1-.6-.671,1.932,1.932,0,0,1-.234-.994v-.03a2.371,2.371,0,0,1,.226-1.045,2.312,2.312,0,0,1,.622-.8,2.841,2.841,0,0,1,.938-.5,3.8,3.8,0,0,1,1.148-.172,5.26,5.26,0,0,1,1.579.251,5.623,5.623,0,0,1,1.452.687l-.752,1.342a6.31,6.31,0,0,0-1.2-.569,3.39,3.39,0,0,0-1.124-.21,1.345,1.345,0,0,0-.851.234.708.708,0,0,0-.3.59v.032a.531.531,0,0,0,.156.383,1.461,1.461,0,0,0,.412.3,4.663,4.663,0,0,0,.6.251q.335.117.7.226c.3.094.6.2.905.329a3.7,3.7,0,0,1,.816.461,2.289,2.289,0,0,1,.6.663,1.817,1.817,0,0,1,.234.951v.032a2.593,2.593,0,0,1-.234,1.14" transform="translate(135.323 90.81)" fill="#fff"/>
      <path id="Path_291" data-name="Path 291" d="M85.515,60.732a1.03,1.03,0,0,0,.267.792,1.066,1.066,0,0,0,.749.243,2.59,2.59,0,0,0,1.172-.283V63.03a3.427,3.427,0,0,1-.768.313,3.6,3.6,0,0,1-.935.11,3.48,3.48,0,0,1-.957-.127,1.958,1.958,0,0,1-.765-.407,1.843,1.843,0,0,1-.5-.744,3.3,3.3,0,0,1-.172-1.151V56.677H82.565V55.068H83.61V52.805h1.9v2.263h2.217v1.609H85.515Z" transform="translate(139.9 89.474)" fill="#fff"/>
      <path id="Path_292" data-name="Path 292" d="M91.506,55.75v1.563H89.35v6.617h-1.9V57.313H86.4V55.734h1.045v-.593a2.782,2.782,0,0,1,.66-2.034,2.542,2.542,0,0,1,1.886-.668,4.925,4.925,0,0,1,.86.065,5.834,5.834,0,0,1,.671.159v1.59a4.962,4.962,0,0,0-.539-.148,2.878,2.878,0,0,0-.571-.054c-.727,0-1.094.415-1.094,1.248v.453Z" transform="translate(146.398 88.854)" fill="#fff"/>
      <path id="Path_293" data-name="Path 293" d="M96.892,59.546a4.309,4.309,0,0,1-.919,1.366,4.407,4.407,0,0,1-1.4.93,4.712,4.712,0,0,1-3.505.008,4.251,4.251,0,0,1-2.3-2.279,4.393,4.393,0,0,1,.008-3.341,4.316,4.316,0,0,1,.919-1.374,4.419,4.419,0,0,1,3.147-1.274,4.506,4.506,0,0,1,1.757.337,4.306,4.306,0,0,1,1.39.921,4.222,4.222,0,0,1,.913,1.366,4.265,4.265,0,0,1,.326,1.671,4.185,4.185,0,0,1-.334,1.671m-1.754-2.67a2.7,2.7,0,0,0-.52-.849,2.44,2.44,0,0,0-3.608-.008,2.5,2.5,0,0,0-.5.833,2.959,2.959,0,0,0-.17,1.024,2.9,2.9,0,0,0,.183,1.037,2.593,2.593,0,0,0,.52.851,2.468,2.468,0,0,0,.792.569,2.333,2.333,0,0,0,1,.21,2.4,2.4,0,0,0,1.032-.21,2.377,2.377,0,0,0,.784-.569,2.481,2.481,0,0,0,.5-.835,2.944,2.944,0,0,0,.17-1.021,2.85,2.85,0,0,0-.183-1.032" transform="translate(149.854 90.789)" fill="#fff"/>
      <path id="Path_294" data-name="Path 294" d="M94.175,61.988h-1.9V53.746h1.9V55.6a3.615,3.615,0,0,1,1.107-1.5,2.662,2.662,0,0,1,1.811-.515v2h-.108a3.033,3.033,0,0,0-1.14.2,2.364,2.364,0,0,0-.892.609,2.718,2.718,0,0,0-.577,1.024,4.5,4.5,0,0,0-.2,1.428Z" transform="translate(156.344 90.797)" fill="#fff"/>
      <path id="Path_295" data-name="Path 295" d="M103.2,63.575l-2.694-3.807H98.1v3.807h-1.9V52.649h4.869a5.623,5.623,0,0,1,1.695.24,3.658,3.658,0,0,1,1.28.687,2.968,2.968,0,0,1,.806,1.094,3.911,3.911,0,0,1,.086,2.67,3.145,3.145,0,0,1-1.361,1.654,4.126,4.126,0,0,1-1.051.445l2.948,4.136Zm-.625-8.733a2.678,2.678,0,0,0-1.676-.461H98.1v3.683h2.818a2.51,2.51,0,0,0,1.644-.5,1.835,1.835,0,0,0,.016-2.721" transform="translate(162.991 89.21)" fill="#fff"/>
      <path id="Path_296" data-name="Path 296" d="M100.167,52.51h2.045V54.3h-2.045Zm.078,3.061h1.9v8.242h-1.9Z" transform="translate(169.725 88.975)" fill="#fff"/>
      <path id="Path_297" data-name="Path 297" d="M107.743,60.682a2.281,2.281,0,0,1-.649.8,2.93,2.93,0,0,1-.975.485,4.233,4.233,0,0,1-1.2.164,5.556,5.556,0,0,1-1.8-.313,5.837,5.837,0,0,1-1.695-.921l.843-1.283a5.484,5.484,0,0,0,1.366.76,3.879,3.879,0,0,0,1.336.256,1.616,1.616,0,0,0,.943-.24.76.76,0,0,0,.334-.649v-.03a.608.608,0,0,0-.145-.407,1.328,1.328,0,0,0-.407-.3,3.484,3.484,0,0,0-.593-.234l-.7-.21c-.3-.094-.606-.2-.913-.313a3.348,3.348,0,0,1-.83-.445,2.227,2.227,0,0,1-.6-.671,1.933,1.933,0,0,1-.234-.994v-.03a2.371,2.371,0,0,1,.226-1.045,2.312,2.312,0,0,1,.622-.8,2.841,2.841,0,0,1,.938-.5,3.8,3.8,0,0,1,1.148-.172,5.26,5.26,0,0,1,1.579.251,5.623,5.623,0,0,1,1.452.687l-.752,1.342a6.31,6.31,0,0,0-1.2-.569,3.39,3.39,0,0,0-1.124-.21,1.345,1.345,0,0,0-.851.234.708.708,0,0,0-.3.59v.032a.531.531,0,0,0,.156.383,1.461,1.461,0,0,0,.412.3,4.663,4.663,0,0,0,.6.251q.335.117.7.226c.3.094.6.2.905.329a3.7,3.7,0,0,1,.816.461,2.289,2.289,0,0,1,.6.663,1.817,1.817,0,0,1,.234.951v.032a2.593,2.593,0,0,1-.234,1.14" transform="translate(171.846 90.81)" fill="#fff"/>
      <path id="Path_298" data-name="Path 298" d="M104.432,52.51h2.045V54.3h-2.045Zm.075,3.061h1.9v8.242h-1.9Z" transform="translate(176.951 88.975)" fill="#fff"/>
      <path id="Path_299" data-name="Path 299" d="M107.838,62h-1.9V53.753h1.9v1.293a4.278,4.278,0,0,1,.442-.558,2.88,2.88,0,0,1,.56-.466,2.791,2.791,0,0,1,.7-.323,2.925,2.925,0,0,1,.862-.119,2.737,2.737,0,0,1,2.164.86,3.346,3.346,0,0,1,.763,2.312V62h-1.9V57.324a2.188,2.188,0,0,0-.455-1.487,1.625,1.625,0,0,0-1.291-.52,1.752,1.752,0,0,0-1.334.536,2.085,2.085,0,0,0-.509,1.5Z" transform="translate(179.495 90.789)" fill="#fff"/>
      <path id="Path_300" data-name="Path 300" d="M116.589,63.513a4.8,4.8,0,0,1-3.276,1.013,6.97,6.97,0,0,1-3.686-.981l.7-1.423a6.262,6.262,0,0,0,1.377.641,5.076,5.076,0,0,0,1.56.232,2.7,2.7,0,0,0,1.932-.641,2.511,2.511,0,0,0,.671-1.9v-.641a4.437,4.437,0,0,1-1.2,1.1,3.161,3.161,0,0,1-1.7.426,3.886,3.886,0,0,1-1.406-.259,3.538,3.538,0,0,1-1.2-.757,3.664,3.664,0,0,1-.833-1.215,4.493,4.493,0,0,1,0-3.279,3.732,3.732,0,0,1,.833-1.218,3.625,3.625,0,0,1,1.2-.765,3.813,3.813,0,0,1,1.4-.267,3.231,3.231,0,0,1,1.724.42,4.749,4.749,0,0,1,1.164,1V53.756h1.886v6.553a4.052,4.052,0,0,1-1.156,3.2m-.895-6.981a2.292,2.292,0,0,0-.523-.722,2.441,2.441,0,0,0-.771-.455,2.665,2.665,0,0,0-.932-.164,2.526,2.526,0,0,0-.924.164,2.362,2.362,0,0,0-.736.455,2.071,2.071,0,0,0-.5.714,2.319,2.319,0,0,0-.175.932,2.168,2.168,0,0,0,.186.927,2.145,2.145,0,0,0,.5.722,2.066,2.066,0,0,0,.738.466,2.555,2.555,0,0,0,.913.162,2.725,2.725,0,0,0,.932-.162,2.28,2.28,0,0,0,.771-.466,2.353,2.353,0,0,0,.523-.714,2.117,2.117,0,0,0,.194-.919,2.241,2.241,0,0,0-.194-.94" transform="translate(185.073 90.789)" fill="#fff"/>
      <path id="Path_301" data-name="Path 301" d="M125.84,63.626h-2.029L122.7,60.991h-5.168l-1.124,2.635h-1.97l4.81-11.007h1.781Zm-5.728-8.708-1.873,4.37H122Z" transform="translate(193.914 89.159)" fill="#fff"/>
      <path id="Path_302" data-name="Path 302" d="M125.218,60.682a2.281,2.281,0,0,1-.649.8,2.929,2.929,0,0,1-.975.485,4.233,4.233,0,0,1-1.2.164,5.556,5.556,0,0,1-1.8-.313,5.837,5.837,0,0,1-1.695-.921l.843-1.283a5.484,5.484,0,0,0,1.366.76,3.88,3.88,0,0,0,1.336.256,1.616,1.616,0,0,0,.943-.24.76.76,0,0,0,.334-.649v-.03a.608.608,0,0,0-.145-.407,1.328,1.328,0,0,0-.407-.3,3.483,3.483,0,0,0-.593-.234l-.7-.21c-.3-.094-.606-.2-.913-.313a3.348,3.348,0,0,1-.83-.445,2.227,2.227,0,0,1-.6-.671,1.932,1.932,0,0,1-.234-.994v-.03a2.371,2.371,0,0,1,.226-1.045,2.312,2.312,0,0,1,.622-.8,2.841,2.841,0,0,1,.938-.5,3.8,3.8,0,0,1,1.148-.172,5.259,5.259,0,0,1,1.579.251,5.624,5.624,0,0,1,1.452.687l-.752,1.342a6.31,6.31,0,0,0-1.2-.569,3.39,3.39,0,0,0-1.124-.21,1.345,1.345,0,0,0-.851.234.708.708,0,0,0-.3.59v.032a.531.531,0,0,0,.156.383,1.461,1.461,0,0,0,.412.3,4.663,4.663,0,0,0,.6.251q.335.117.7.226c.3.094.6.2.905.329a3.7,3.7,0,0,1,.816.461,2.289,2.289,0,0,1,.6.663,1.817,1.817,0,0,1,.234.951v.032a2.592,2.592,0,0,1-.234,1.14" transform="translate(201.456 90.81)" fill="#fff"/>
      <path id="Path_303" data-name="Path 303" d="M130.1,59.7a4.067,4.067,0,0,1-.86,1.35,3.507,3.507,0,0,1-1.231.835,3.759,3.759,0,0,1-1.428.283,3.036,3.036,0,0,1-1.687-.439,4.427,4.427,0,0,1-1.11-1.013L123.8,64.5h-1.9V53.756h1.9V55.13a4.165,4.165,0,0,1,1.121-1.1,2.972,2.972,0,0,1,1.665-.445,3.739,3.739,0,0,1,1.42.283,3.588,3.588,0,0,1,1.223.835,4.2,4.2,0,0,1,.862,1.35,4.772,4.772,0,0,1,.326,1.827A4.88,4.88,0,0,1,130.1,59.7m-1.773-2.926a2.519,2.519,0,0,0-.5-.838,2.315,2.315,0,0,0-2.584-.531,2.255,2.255,0,0,0-.768.539,2.726,2.726,0,0,0-.523.838,3.166,3.166,0,0,0,0,2.182,2.694,2.694,0,0,0,.523.838,2.211,2.211,0,0,0,.768.536,2.264,2.264,0,0,0,.919.191,2.3,2.3,0,0,0,1.665-.719,2.519,2.519,0,0,0,.5-.838,3.3,3.3,0,0,0,0-2.2" transform="translate(206.541 90.789)" fill="#fff"/>
      <path id="Path_304" data-name="Path 304" d="M125.644,52.51h2.045V54.3h-2.045Zm.075,3.061h1.9v8.242h-1.9Z" transform="translate(212.893 88.975)" fill="#fff"/>
      <path id="Path_305" data-name="Path 305" d="M129.05,61.988h-1.9V53.746h1.9V55.6a3.615,3.615,0,0,1,1.107-1.5,2.662,2.662,0,0,1,1.811-.515v2h-.108a3.033,3.033,0,0,0-1.14.2,2.363,2.363,0,0,0-.892.609,2.718,2.718,0,0,0-.577,1.024,4.5,4.5,0,0,0-.2,1.428Z" transform="translate(215.437 90.797)" fill="#fff"/>
      <path id="Path_306" data-name="Path 306" d="M134.643,61.967V60.954a3.505,3.505,0,0,1-1.075.841,3.392,3.392,0,0,1-1.592.345,3.74,3.74,0,0,1-1.124-.164,2.727,2.727,0,0,1-.93-.485,2.477,2.477,0,0,1-.641-.795,2.432,2.432,0,0,1-.242-1.1v-.03a2.606,2.606,0,0,1,.251-1.169,2.31,2.31,0,0,1,.7-.83,3.139,3.139,0,0,1,1.062-.493,5.265,5.265,0,0,1,1.336-.162,7.411,7.411,0,0,1,1.272.094,7.826,7.826,0,0,1,1.005.248v-.2a1.642,1.642,0,0,0-.523-1.312,2.231,2.231,0,0,0-1.506-.453,5.169,5.169,0,0,0-1.25.14,8.029,8.029,0,0,0-1.107.377l-.515-1.517a8.982,8.982,0,0,1,1.4-.5A7.014,7.014,0,0,1,132.9,53.6a3.674,3.674,0,0,1,2.732.913,3.533,3.533,0,0,1,.889,2.568v4.888Zm.048-3.5a5.271,5.271,0,0,0-.849-.234,5.6,5.6,0,0,0-1.04-.092,2.434,2.434,0,0,0-1.39.342,1.126,1.126,0,0,0-.5.983V59.5a1.027,1.027,0,0,0,.461.905,1.967,1.967,0,0,0,1.129.313,2.89,2.89,0,0,0,.87-.127,2.22,2.22,0,0,0,.7-.35,1.623,1.623,0,0,0,.458-.547,1.554,1.554,0,0,0,.164-.711Z" transform="translate(218.646 90.818)" fill="#fff"/>
      <path id="Path_307" data-name="Path 307" d="M134.409,62h-1.9V53.753h1.9v1.293a4.277,4.277,0,0,1,.442-.558,2.879,2.879,0,0,1,.56-.466,2.792,2.792,0,0,1,.7-.323,2.926,2.926,0,0,1,.862-.119,2.737,2.737,0,0,1,2.164.86,3.346,3.346,0,0,1,.763,2.312V62H138V57.324a2.187,2.187,0,0,0-.455-1.487,1.625,1.625,0,0,0-1.291-.52,1.752,1.752,0,0,0-1.334.536,2.085,2.085,0,0,0-.509,1.5Z" transform="translate(224.517 90.789)" fill="#fff"/>
      <path id="Path_308" data-name="Path 308" d="M138.658,60.732a1.03,1.03,0,0,0,.267.792,1.066,1.066,0,0,0,.749.243,2.59,2.59,0,0,0,1.172-.283V63.03a3.428,3.428,0,0,1-.768.313,3.6,3.6,0,0,1-.935.11,3.479,3.479,0,0,1-.956-.127,1.957,1.957,0,0,1-.765-.407,1.843,1.843,0,0,1-.5-.744,3.3,3.3,0,0,1-.172-1.151V56.677h-1.045V55.068h1.045V52.805h1.9v2.263h2.218v1.609h-2.218Z" transform="translate(229.946 89.474)" fill="#fff"/>
      <path id="Path_309" data-name="Path 309" d="M144.257,60.682a2.281,2.281,0,0,1-.649.8,2.93,2.93,0,0,1-.975.485,4.233,4.233,0,0,1-1.2.164,5.556,5.556,0,0,1-1.8-.313,5.837,5.837,0,0,1-1.695-.921l.843-1.283a5.484,5.484,0,0,0,1.366.76,3.879,3.879,0,0,0,1.336.256,1.616,1.616,0,0,0,.943-.24.759.759,0,0,0,.334-.649v-.03a.608.608,0,0,0-.145-.407,1.328,1.328,0,0,0-.407-.3,3.484,3.484,0,0,0-.593-.234l-.7-.21c-.3-.094-.606-.2-.913-.313a3.347,3.347,0,0,1-.83-.445,2.227,2.227,0,0,1-.6-.671,1.933,1.933,0,0,1-.234-.994v-.03a2.371,2.371,0,0,1,.226-1.045,2.313,2.313,0,0,1,.622-.8,2.841,2.841,0,0,1,.938-.5,3.8,3.8,0,0,1,1.148-.172,5.259,5.259,0,0,1,1.579.251,5.624,5.624,0,0,1,1.452.687l-.752,1.342a6.311,6.311,0,0,0-1.2-.569,3.39,3.39,0,0,0-1.124-.21,1.345,1.345,0,0,0-.851.234.708.708,0,0,0-.3.59v.032a.531.531,0,0,0,.156.383,1.461,1.461,0,0,0,.412.3,4.663,4.663,0,0,0,.6.251q.335.117.7.226c.3.094.6.2.905.329a3.7,3.7,0,0,1,.816.461,2.289,2.289,0,0,1,.6.663,1.817,1.817,0,0,1,.234.951v.032a2.593,2.593,0,0,1-.234,1.14" transform="translate(233.716 90.81)" fill="#fff"/>
    </g>
  </g>
</svg>
