<svg width="250" height="250" viewBox="0 0 250 250" fill="none" xmlns="http://www.w3.org/2000/svg">
<rect width="250" height="250" fill="#C4E1F3"/>
<g clip-path="url(#clip0_307_46)">
<path d="M113.853 64.0383C113.828 63.5997 113.785 63.1693 113.751 62.7307C112.999 54.7442 110.317 46.9563 105.784 39.9629C103.508 40.8815 101.301 41.9492 99.1777 43.1741C102.603 48.2722 104.862 53.8834 105.927 59.685C106.021 60.1816 106.105 60.6782 106.173 61.183C106.562 63.8314 106.697 66.5046 106.587 69.1861C106.57 69.6165 106.545 70.0468 106.511 70.4772C106.249 74.036 105.547 77.5947 104.388 81.0873C103.229 84.5715 101.648 87.8489 99.7106 90.8697C102.138 91.4904 104.506 92.2767 106.824 93.2202C108.668 90.1083 110.199 86.7896 111.366 83.297C112.533 79.7962 113.303 76.2291 113.684 72.6538C113.726 72.24 113.768 71.8262 113.802 71.4124C114.005 68.9461 114.022 66.4881 113.853 64.0383Z" fill="#2B3889"/>
<path d="M92.7239 99.2781C88.3594 103.366 83.1406 106.611 77.2959 108.771C78.2771 110.964 79.4274 113.099 80.7215 115.144C88.6047 112.081 95.4729 107.323 100.895 101.289C101.191 100.966 101.478 100.635 101.766 100.296C99.1861 99.3608 96.5302 98.6656 93.8235 98.2021C93.4598 98.5663 93.0961 98.9139 92.7239 99.2698V99.2781Z" fill="#2B3889"/>
<path d="M117.016 100.23C113.963 98.0699 110.715 96.2574 107.34 94.7925C106.951 94.627 106.562 94.4614 106.164 94.3042C103.821 93.3607 101.419 92.5827 98.9747 91.9786C98.5433 91.871 98.1034 91.7717 97.6636 91.6724C89.6451 89.9013 81.2206 89.9757 73.0076 92.0117C73.1937 94.4201 73.5574 96.8036 74.0733 99.1292C80.1041 97.5319 86.2787 97.1677 92.2672 97.9788C92.7832 98.045 93.2906 98.1278 93.7981 98.2105C96.4964 98.6657 99.1523 99.3692 101.741 100.304C102.155 100.453 102.569 100.611 102.984 100.776C106.384 102.117 109.641 103.863 112.677 106.023C115.722 108.175 118.437 110.658 120.789 113.389C122.142 111.337 123.639 109.375 125.28 107.521C122.81 104.848 120.044 102.398 116.982 100.238L117.016 100.23Z" fill="#2B3889"/>
<path d="M131.345 115.508C131.116 115.135 130.88 114.763 130.643 114.391C128.934 116.493 127.429 118.744 126.151 121.103C126.397 121.55 126.625 121.996 126.853 122.452C129.492 127.748 131.049 133.583 131.353 139.658C133.823 139.426 136.251 139.029 138.636 138.474C138.086 130.223 135.557 122.394 131.353 115.508H131.345Z" fill="#2B3889"/>
<path d="M154.622 91.6729C156.212 93.9488 158.014 96.0592 160.01 97.9876C165.998 97.1765 172.173 97.5407 178.204 99.138C178.728 96.8041 179.083 94.4288 179.27 92.0205C171.057 89.9845 162.632 89.91 154.614 91.6811L154.622 91.6729Z" fill="#2B3889"/>
<path d="M137.156 64.3691C133.595 65.2299 129.907 65.6768 126.143 65.6768C122.379 65.6768 118.691 65.2299 115.13 64.3691C114.699 64.2615 114.267 64.154 113.844 64.0381C114.005 66.4878 113.997 68.9541 113.794 71.4122C114.208 71.5115 114.623 71.6025 115.037 71.6853C118.649 72.4384 122.362 72.8274 126.143 72.8274C129.924 72.8274 133.637 72.4384 137.249 71.6853C137.037 69.2438 137.012 66.7941 137.156 64.3609V64.3691Z" fill="#2B3889"/>
<path d="M90.7701 49.1582C89.9835 49.8369 89.2138 50.5403 88.4694 51.2686C87.4713 52.2452 86.5156 53.2549 85.6021 54.2894C91.0238 60.6456 97.7905 65.5285 105.344 68.69C105.428 65.9423 105.242 63.2029 104.794 60.4966C99.4653 57.7241 94.6948 53.9005 90.7785 49.1582H90.7701Z" fill="#2B3889"/>
<path d="M163.833 51.2686C163.08 50.5403 162.319 49.8369 161.533 49.1582C157.616 53.9005 152.846 57.7241 147.517 60.4966C147.06 60.7366 146.604 60.9683 146.138 61.1835C145.749 63.8319 145.614 66.5051 145.724 69.1866C146.138 69.0211 146.553 68.8555 146.967 68.6817C154.521 65.5202 161.287 60.6373 166.709 54.2812C165.796 53.2466 164.84 52.2369 163.842 51.2604L163.833 51.2686Z" fill="#2B3889"/>
<path d="M146.13 94.3047C145.741 94.4619 145.343 94.6275 144.954 94.793C141.579 96.2496 138.34 98.0621 135.278 100.23C132.224 102.391 129.45 104.84 126.98 107.513C126.693 107.82 126.413 108.134 126.143 108.449C124.493 110.327 122.996 112.314 121.651 114.391C121.415 114.763 121.178 115.136 120.949 115.508C116.737 122.394 114.217 130.232 113.667 138.475C116.052 139.029 118.48 139.426 120.949 139.658C121.254 133.575 122.81 127.749 125.449 122.452C125.678 121.997 125.906 121.55 126.151 121.103C127.437 118.744 128.934 116.493 130.643 114.391C130.922 114.052 131.201 113.721 131.48 113.39C133.84 110.658 136.555 108.176 139.592 106.024C142.637 103.872 145.893 102.117 149.285 100.777C149.699 100.611 150.114 100.454 150.528 100.305C148.913 98.418 147.441 96.4151 146.121 94.3047H146.13Z" fill="#2B3889"/>
<path d="M159.579 99.2783C159.207 98.9307 158.843 98.5749 158.479 98.2107C156.568 96.2906 154.842 94.205 153.32 91.9705C153.074 91.6063 152.829 91.2421 152.592 90.8697C150.655 87.8406 149.082 84.5633 147.915 81.0873C146.756 77.603 146.054 74.0442 145.792 70.4772C145.758 70.0468 145.732 69.6165 145.716 69.1861C145.606 66.5046 145.741 63.8231 146.13 61.183C146.206 60.6865 146.282 60.1816 146.375 59.685C147.433 53.8834 149.699 48.2722 153.125 43.1741C150.994 41.9492 148.794 40.8815 146.519 39.9629C141.985 46.9563 139.304 54.7442 138.551 62.7307C138.509 63.1693 138.475 63.5997 138.45 64.0383C138.289 66.4881 138.298 68.9544 138.501 71.4124C138.534 71.8262 138.577 72.24 138.619 72.6538C139 76.2291 139.769 79.7962 140.937 83.297C142.104 86.7978 143.635 90.1166 145.479 93.2202C145.69 93.5843 145.91 93.9402 146.138 94.2961C147.458 96.4065 148.938 98.4093 150.545 100.296C150.833 100.627 151.12 100.958 151.416 101.289C156.838 107.323 163.706 112.09 171.59 115.144C172.884 113.091 174.034 110.964 175.015 108.771C169.162 106.611 163.943 103.367 159.587 99.2701L159.579 99.2783Z" fill="#2B3889"/>
<path d="M126.151 58.965C132.368 58.965 137.426 54.0407 137.426 47.9825C137.426 41.9243 132.368 37 126.151 37C119.934 37 114.876 41.9243 114.876 47.9825C114.876 54.0407 119.934 58.965 126.151 58.965ZM126.151 44.1506C128.317 44.1506 130.084 45.8721 130.084 47.9825C130.084 50.0929 128.325 51.8144 126.151 51.8144C123.977 51.8144 122.218 50.0929 122.218 47.9825C122.218 45.8721 123.977 44.1506 126.151 44.1506Z" fill="#BD2126"/>
<path d="M97.8327 79.0186C99.7528 73.2584 96.5048 67.0512 90.5924 65.1808C84.68 63.3104 78.3109 66.4719 76.3909 72.2321C74.4708 77.9923 77.7188 84.1995 83.6312 86.0699C84.7815 86.4341 85.9572 86.6078 87.1076 86.6078C91.8612 86.6078 96.2933 83.6533 97.8327 79.0186ZM85.898 79.2669C83.8342 78.6131 82.7092 76.453 83.3774 74.4419C83.9188 72.828 85.4582 71.7935 87.116 71.7935C87.5136 71.7935 87.928 71.8514 88.3256 71.9838C90.3894 72.6376 91.5144 74.7977 90.8462 76.8088C90.178 78.82 87.9534 79.9207 85.898 79.2669Z" fill="#BD2126"/>
<path d="M108.643 111.452C103.618 107.894 96.5471 108.986 92.8931 113.886C91.1253 116.261 90.4064 119.166 90.88 122.063C91.3537 124.959 92.9523 127.508 95.3883 129.23C97.3845 130.645 99.7021 131.324 102.003 131.324C105.488 131.324 108.939 129.751 111.138 126.796C112.906 124.421 113.624 121.516 113.151 118.62C112.677 115.723 111.079 113.174 108.643 111.452ZM105.2 122.592C103.923 124.297 101.461 124.678 99.7105 123.436C98.8647 122.832 98.3065 121.947 98.1373 120.937C97.9766 119.927 98.2219 118.918 98.8393 118.09C99.609 117.064 100.81 116.509 102.02 116.509C102.823 116.509 103.627 116.749 104.32 117.237C105.166 117.842 105.724 118.727 105.894 119.737C106.054 120.747 105.809 121.756 105.192 122.584L105.2 122.592Z" fill="#BD2126"/>
<path d="M143.652 111.452C138.619 115.011 137.502 121.897 141.156 126.796C143.356 129.751 146.798 131.324 150.291 131.324C152.592 131.324 154.91 130.645 156.906 129.23C161.938 125.671 163.055 118.785 159.401 113.886C155.747 108.986 148.684 107.894 143.652 111.452ZM153.455 118.09C154.732 119.795 154.334 122.195 152.584 123.436C150.833 124.678 148.371 124.297 147.094 122.592C145.817 120.887 146.214 118.487 147.965 117.246C149.716 116.004 152.178 116.385 153.455 118.09Z" fill="#BD2126"/>
<path d="M154.47 79.0181C155.4 81.8071 157.388 84.0748 160.069 85.4073C161.676 86.2018 163.419 86.6073 165.178 86.6073C166.354 86.6073 167.529 86.4253 168.671 86.0611C174.584 84.1907 177.832 77.9835 175.912 72.2233C173.992 66.4631 167.614 63.3016 161.71 65.172C155.798 67.0424 152.55 73.2496 154.47 79.0098V79.0181ZM163.977 71.9833C164.383 71.8592 164.789 71.793 165.186 71.793C166.844 71.793 168.384 72.8192 168.925 74.4413C169.593 76.4525 168.46 78.6125 166.404 79.2664C165.406 79.5809 164.341 79.4981 163.402 79.0346C162.463 78.5712 161.769 77.7766 161.448 76.8083C160.78 74.7972 161.913 72.6371 163.968 71.9833H163.977Z" fill="#BD2126"/>
<path d="M58.7807 189.481H45.1797V184.945H49.0367L47.2943 179.897H35.2919L33.5495 184.945H37.3134V189.481H24V184.945H27.8147L36.0531 161.921H32.2384V157.386H45.0866L54.966 184.945H58.7807V189.481ZM41.3227 162.335L36.899 175.221H45.7041L41.3311 162.335H41.3227Z" fill="#BD2126"/>
<path d="M72.9992 184.945H77.5667V189.481H62.7393V184.945H67.349V161.921H62.7393V157.386H77.5667V161.921H72.9992V184.945Z" fill="#BD2126"/>
<path d="M114.563 189.48H106.705L97.9511 174.575L92.4447 180.948V184.937H97.0545V189.472H82.5146V184.937H86.8453V161.912H82.5146V157.377H96.7754V161.912H92.4447V174.244L102.561 161.912H99.7866V157.377H113.201V161.912H108.922L101.673 170.263L110.283 184.937H114.563V189.472V189.48Z" fill="#BD2126"/>
<path d="M136.031 184.945H140.64V189.481H125.72V184.945H130.38V178.341L121.017 161.921H117.202V157.386H130.051V161.921H127.132L133.248 172.97L139.363 161.921H136.394V157.386H149.15V161.921H145.335L136.014 178.341V184.945H136.031Z" fill="#BD2126"/>
<path d="M182.154 189.481H168.553V184.945H172.41L170.667 179.897H158.665L156.923 184.945H160.687V189.481H147.365V184.945H151.179L159.418 161.921H155.603V157.386H168.451L178.331 184.945H182.145V189.481H182.154ZM164.696 162.335L160.272 175.221H169.077L164.704 162.335H164.696Z" fill="#BD2126"/>
<path d="M222.12 184.945H226.45V189.481H212.003V184.945H216.571V166.647L208.29 184.581H203.96L195.679 166.647V184.945H200.246V189.481H185.935V184.945H190.265V161.921H185.935V157.386H196.711L206.269 177.886L215.827 157.386H226.459V161.921H222.128V184.945H222.12Z" fill="#BD2126"/>
<path d="M31.1389 209.641H27.3919L26.6222 211.768H24.3892L28.1531 201.663H30.3269L34.2685 211.768H32.0017L31.1474 209.641H31.1389ZM28.1108 207.705H30.3946L29.2442 204.634L28.1108 207.705Z" fill="#2B3889"/>
<path d="M37.5164 204.874V211.776H35.4441V201.654H37.5164L43.1581 208.565V201.654H45.2304V211.776H43.1581L37.5164 204.874Z" fill="#2B3889"/>
<path d="M53.1644 209.641H49.4173L48.6476 211.768H46.4231L50.1871 201.663H52.3608L56.3024 211.768H54.0356L53.1813 209.641H53.1644ZM50.1363 207.705H52.4201L51.2697 204.634L50.1363 207.705Z" fill="#2B3889"/>
<path d="M57.4612 201.663H59.5335V209.832H63.7796V211.768H57.4612V201.663Z" fill="#2B3889"/>
<path d="M63.9233 206.695C63.9233 205.967 64.0587 205.288 64.3378 204.643C64.6169 204.006 64.9975 203.451 65.4881 202.971C65.9787 202.499 66.5454 202.119 67.2136 201.845C67.8734 201.572 68.5923 201.432 69.362 201.432C70.1318 201.432 70.8507 201.564 71.5105 201.845C72.1702 202.119 72.7454 202.491 73.236 202.971C73.7265 203.451 74.1072 204.006 74.3863 204.643C74.6654 205.28 74.8008 205.967 74.8008 206.695C74.8008 207.424 74.6654 208.111 74.3863 208.748C74.1072 209.393 73.7265 209.956 73.236 210.436C72.7454 210.916 72.1702 211.297 71.5105 211.578C70.8507 211.86 70.1318 212 69.362 212C68.5923 212 67.8734 211.86 67.2136 211.578C66.5539 211.297 65.9787 210.916 65.4881 210.436C64.9975 209.956 64.6169 209.393 64.3378 208.748C64.0587 208.102 63.9233 207.424 63.9233 206.695ZM66.131 206.695C66.131 207.159 66.2155 207.589 66.3763 207.995C66.537 208.4 66.7653 208.764 67.0529 209.062C67.3405 209.369 67.6873 209.609 68.0764 209.791C68.4655 209.973 68.8968 210.064 69.3536 210.064C69.8103 210.064 70.2417 209.973 70.6308 209.791C71.0199 209.609 71.3667 209.369 71.6543 209.062C71.9418 208.756 72.1702 208.4 72.3309 207.995C72.4916 207.589 72.5762 207.15 72.5762 206.695C72.5762 206.24 72.4916 205.81 72.3309 205.404C72.1702 204.999 71.9418 204.651 71.6543 204.353C71.3667 204.055 71.0199 203.823 70.6308 203.641C70.2417 203.468 69.8103 203.377 69.3536 203.377C68.8968 203.377 68.4655 203.468 68.0764 203.641C67.6873 203.815 67.3405 204.055 67.0529 204.353C66.7653 204.651 66.537 204.999 66.3763 205.404C66.2155 205.81 66.131 206.24 66.131 206.695Z" fill="#2B3889"/>
<path d="M85.1283 210.825C84.6462 211.197 84.0711 211.478 83.4029 211.685C82.7262 211.892 81.9903 211.992 81.1868 211.992C80.4424 211.992 79.7488 211.851 79.106 211.578C78.4632 211.296 77.9049 210.924 77.4228 210.444C76.9407 209.964 76.5685 209.401 76.2978 208.756C76.0272 208.11 75.8918 207.423 75.8918 206.703C75.8918 205.983 76.0272 205.296 76.2978 204.651C76.5685 204.013 76.9491 203.459 77.4228 202.979C77.9049 202.507 78.4632 202.126 79.106 201.853C79.7488 201.58 80.4424 201.439 81.1868 201.439C81.9903 201.439 82.7262 201.539 83.4029 201.754C84.0795 201.961 84.6547 202.251 85.1283 202.615L83.8258 204.071C83.4536 203.848 83.0476 203.674 82.5993 203.558C82.151 203.442 81.6773 203.384 81.1783 203.384C80.7469 203.384 80.3409 203.475 79.9688 203.649C79.5966 203.823 79.2667 204.063 78.9961 204.361C78.7169 204.659 78.497 205.006 78.3363 205.404C78.1756 205.801 78.091 206.231 78.091 206.687C78.091 207.142 78.1756 207.58 78.3363 207.986C78.497 208.391 78.7169 208.756 78.9961 209.054C79.2752 209.36 79.5966 209.6 79.9688 209.782C80.3409 209.964 80.7469 210.055 81.1783 210.055C81.8465 210.055 82.464 209.956 83.0476 209.749V206.703H85.1199V210.825H85.1283Z" fill="#2B3889"/>
<path d="M90.5249 201.663H92.5972V211.768H90.5249V201.663Z" fill="#2B3889"/>
<path d="M100.523 209.641H96.7755L96.0058 211.768H93.7812L97.5452 201.663H99.719L103.661 211.768H101.394L100.539 209.641H100.523ZM97.4945 207.705H99.7782L98.6279 204.634L97.4945 207.705Z" fill="#2B3889"/>
<path d="M109.818 204.295C109.539 204.097 109.235 203.915 108.905 203.732C108.575 203.55 108.177 203.468 107.729 203.468C107.425 203.468 107.171 203.567 106.976 203.757C106.782 203.948 106.68 204.179 106.68 204.436C106.68 204.618 106.79 204.775 107.002 204.924C107.213 205.073 107.492 205.23 107.822 205.388C108.152 205.553 108.499 205.727 108.879 205.917C109.26 206.108 109.607 206.339 109.937 206.604C110.267 206.869 110.537 207.175 110.749 207.531C110.969 207.887 111.07 208.309 111.07 208.806C111.07 209.153 111.011 209.517 110.884 209.89C110.757 210.262 110.563 210.602 110.292 210.916C110.021 211.231 109.675 211.479 109.243 211.686C108.82 211.884 108.304 211.992 107.695 211.992C107.129 211.992 106.655 211.934 106.249 211.835C105.851 211.727 105.505 211.587 105.209 211.421C104.921 211.255 104.676 211.073 104.473 210.867C104.27 210.668 104.084 210.461 103.923 210.271L105.166 208.731C105.479 209.071 105.843 209.369 106.249 209.609C106.663 209.849 107.137 209.973 107.695 209.973C108.118 209.973 108.414 209.873 108.575 209.666C108.736 209.468 108.82 209.22 108.82 208.93C108.82 208.698 108.71 208.491 108.499 208.317C108.279 208.144 108.017 207.97 107.687 207.804C107.365 207.639 107.019 207.465 106.646 207.275C106.274 207.093 105.927 206.877 105.598 206.637C105.276 206.397 105.006 206.108 104.786 205.768C104.566 205.429 104.464 205.032 104.464 204.56C104.464 204.121 104.54 203.708 104.693 203.327C104.845 202.946 105.065 202.615 105.344 202.334C105.623 202.052 105.961 201.837 106.359 201.672C106.756 201.514 107.196 201.432 107.67 201.432C108.025 201.432 108.372 201.473 108.702 201.548C109.032 201.622 109.336 201.721 109.615 201.845C109.894 201.97 110.148 202.102 110.377 202.251C110.605 202.4 110.791 202.541 110.952 202.673L109.818 204.279V204.295Z" fill="#2B3889"/>
<path d="M117.921 207.663V211.776H115.849V201.654H117.921V205.254L121.322 201.671H124.003L119.537 206.388L124.654 211.776H121.821L117.921 207.663Z" fill="#2B3889"/>
<path d="M127.547 208.259V211.776H125.475V201.671H128.071C128.68 201.671 129.23 201.729 129.729 201.845C130.22 201.961 130.643 202.151 130.981 202.407C131.319 202.664 131.582 203.003 131.768 203.409C131.954 203.814 132.047 204.311 132.047 204.899C132.047 205.213 132.004 205.503 131.928 205.759C131.852 206.024 131.742 206.256 131.607 206.471C131.472 206.686 131.311 206.877 131.133 207.05C130.956 207.216 130.761 207.373 130.558 207.506C130.863 207.812 131.133 208.151 131.379 208.515C131.624 208.879 131.844 209.26 132.038 209.641C132.233 210.022 132.402 210.394 132.554 210.766C132.706 211.139 132.85 211.47 132.977 211.768H130.651C130.516 211.478 130.355 211.139 130.177 210.733C130 210.336 129.797 209.947 129.568 209.583C129.34 209.211 129.069 208.896 128.773 208.639C128.477 208.383 128.131 208.25 127.741 208.25H127.547V208.259ZM127.547 203.608V206.314H128.334C128.537 206.314 128.731 206.289 128.909 206.248C129.086 206.206 129.247 206.123 129.382 206.016C129.518 205.908 129.628 205.768 129.704 205.586C129.78 205.403 129.822 205.18 129.822 204.899C129.822 204.427 129.661 204.088 129.349 203.897C129.036 203.707 128.604 203.608 128.063 203.608H127.538H127.547Z" fill="#2B3889"/>
<path d="M134.424 201.663H140.175V203.6H136.496V205.66H139.786V207.605H136.496V209.832H140.302V211.768H134.424V201.663Z" fill="#2B3889"/>
<path d="M142.036 201.663H147.788V203.6H144.108V205.66H147.399V207.605H144.108V209.832H147.915V211.768H142.036V201.663Z" fill="#2B3889"/>
<path d="M149.64 201.663H153.666C154.368 201.663 155.02 201.787 155.62 202.035C156.221 202.283 156.745 202.639 157.193 203.086C157.642 203.533 157.989 204.063 158.242 204.675C158.496 205.288 158.623 205.958 158.623 206.678C158.623 207.398 158.488 208.077 158.217 208.697C157.946 209.318 157.574 209.856 157.1 210.311C156.627 210.766 156.068 211.122 155.417 211.379C154.774 211.635 154.072 211.76 153.328 211.76H149.649V201.654L149.64 201.663ZM156.407 206.686C156.407 206.239 156.339 205.825 156.204 205.445C156.068 205.064 155.874 204.741 155.62 204.468C155.366 204.195 155.079 203.98 154.749 203.831C154.419 203.682 154.055 203.599 153.666 203.599H151.712V209.823H153.32C153.751 209.823 154.157 209.74 154.538 209.583C154.918 209.426 155.24 209.21 155.519 208.929C155.798 208.648 156.009 208.317 156.17 207.928C156.331 207.539 156.407 207.125 156.407 206.678V206.686Z" fill="#2B3889"/>
<path d="M159.714 206.695C159.714 205.967 159.849 205.288 160.128 204.643C160.407 204.006 160.788 203.451 161.279 202.971C161.769 202.499 162.336 202.119 163.004 201.845C163.664 201.572 164.383 201.432 165.153 201.432C165.922 201.432 166.641 201.564 167.301 201.845C167.961 202.119 168.536 202.491 169.027 202.971C169.517 203.451 169.898 204.006 170.177 204.643C170.456 205.28 170.591 205.967 170.591 206.695C170.591 207.424 170.456 208.111 170.177 208.748C169.898 209.393 169.517 209.956 169.027 210.436C168.536 210.916 167.961 211.297 167.301 211.578C166.641 211.86 165.922 212 165.153 212C164.383 212 163.664 211.86 163.004 211.578C162.344 211.297 161.769 210.916 161.279 210.436C160.788 209.956 160.407 209.393 160.128 208.748C159.849 208.102 159.714 207.424 159.714 206.695ZM161.921 206.695C161.921 207.159 162.006 207.589 162.167 207.995C162.328 208.4 162.556 208.764 162.843 209.062C163.131 209.369 163.478 209.609 163.867 209.791C164.256 209.973 164.687 210.064 165.144 210.064C165.601 210.064 166.032 209.973 166.421 209.791C166.81 209.609 167.157 209.369 167.445 209.062C167.732 208.756 167.961 208.4 168.121 207.995C168.282 207.589 168.367 207.15 168.367 206.695C168.367 206.24 168.282 205.81 168.121 205.404C167.961 204.999 167.732 204.651 167.445 204.353C167.157 204.055 166.81 203.823 166.421 203.641C166.032 203.468 165.601 203.377 165.144 203.377C164.687 203.377 164.256 203.468 163.867 203.641C163.478 203.815 163.131 204.055 162.843 204.353C162.556 204.651 162.328 204.999 162.167 205.404C162.006 205.81 161.921 206.24 161.921 206.695Z" fill="#2B3889"/>
<path d="M179.405 203.608H175.988V211.776H173.915V203.608H170.524V201.671H179.405V203.608Z" fill="#2B3889"/>
<path d="M185.715 204.295C185.436 204.097 185.131 203.915 184.801 203.732C184.471 203.55 184.074 203.468 183.626 203.468C183.321 203.468 183.067 203.567 182.873 203.757C182.678 203.948 182.577 204.179 182.577 204.436C182.577 204.618 182.687 204.775 182.898 204.924C183.11 205.073 183.389 205.23 183.719 205.388C184.049 205.553 184.395 205.727 184.776 205.917C185.157 206.108 185.503 206.339 185.833 206.604C186.163 206.869 186.434 207.175 186.645 207.531C186.865 207.887 186.967 208.309 186.967 208.806C186.967 209.153 186.907 209.517 186.781 209.89C186.654 210.262 186.459 210.602 186.188 210.916C185.918 211.231 185.571 211.479 185.14 211.686C184.717 211.884 184.201 211.992 183.592 211.992C183.025 211.992 182.551 211.934 182.145 211.835C181.748 211.727 181.401 211.587 181.105 211.421C180.817 211.255 180.572 211.073 180.369 210.867C180.166 210.668 179.98 210.461 179.819 210.271L181.063 208.731C181.376 209.071 181.739 209.369 182.145 209.609C182.56 209.849 183.033 209.973 183.592 209.973C184.015 209.973 184.311 209.873 184.471 209.666C184.632 209.468 184.717 209.22 184.717 208.93C184.717 208.698 184.607 208.491 184.395 208.317C184.175 208.144 183.913 207.97 183.583 207.804C183.262 207.639 182.915 207.465 182.543 207.275C182.171 207.093 181.824 206.877 181.494 206.637C181.173 206.397 180.902 206.108 180.682 205.768C180.462 205.429 180.361 205.032 180.361 204.56C180.361 204.121 180.437 203.708 180.589 203.327C180.741 202.946 180.961 202.615 181.24 202.334C181.519 202.052 181.858 201.837 182.255 201.672C182.653 201.514 183.093 201.432 183.566 201.432C183.922 201.432 184.268 201.473 184.598 201.548C184.928 201.622 185.233 201.721 185.512 201.845C185.791 201.97 186.045 202.102 186.273 202.251C186.501 202.4 186.688 202.541 186.848 202.673L185.715 204.279V204.295Z" fill="#2B3889"/>
<path d="M193.996 209.641H190.249L189.479 211.768H187.254L191.018 201.663H193.192L197.134 211.768H194.867L194.013 209.641H193.996ZM190.968 207.705H193.251L192.101 204.634L190.968 207.705Z" fill="#2B3889"/>
<path d="M195.433 201.663H197.692L200.568 208.996L203.444 201.663H205.685L201.676 211.768H199.477L195.433 201.663Z" fill="#2B3889"/>
<path d="M210.752 209.641H207.004L206.235 211.768H204.01L207.774 201.663H209.948L213.89 211.768H211.623L210.768 209.641H210.752ZM207.723 207.705H210.007L208.857 204.634L207.723 207.705Z" fill="#2B3889"/>
<path d="M215.522 201.663H217.738L220.902 209.277L224.141 201.663H226.315L227.008 211.768H224.936L224.53 205.909L222.069 211.768H219.785L217.281 205.851L216.85 211.768H214.778L215.522 201.663Z" fill="#2B3889"/>
</g>
<defs>
<clipPath id="clip0_307_46">
<rect width="203" height="175" fill="white" transform="translate(24 37)"/>
</clipPath>
</defs>
</svg>
